<?xml version="1.0" encoding="utf-8"?>
<!-- Generator: Adobe Illustrator 22.1.0, SVG Export Plug-In . SVG Version: 6.00 Build 0)  -->
<svg version="1.1" id="Calque_1" xmlns="http://www.w3.org/2000/svg" xmlns:xlink="http://www.w3.org/1999/xlink" x="0px" y="0px"
	 viewBox="0 0 1791 755" style="enable-background:new 0 0 1791 755;" xml:space="preserve">
<style type="text/css">
	.st0{fill:#410C00;}
	.st1{fill:#AD7662;}
	.st2{fill:#FFFFDE;}
	.st3{fill:#5A0905;}
	.st4{fill:url(#SVGID_1_);}
	.st5{fill:url(#SVGID_2_);}
	.st6{fill:#330833;}
	.st7{fill:#2F3344;}
	.st8{fill:none;}
	.st9{fill:#4A0F26;}
	.st10{fill:#C23545;}
	.st11{fill:#A92436;}
	.st12{fill:#E05D4B;}
	.st13{fill:#E86B55;}
	.st14{fill:#EF2814;}
</style>
<g>
	<path class="st0" d="M0,534.4c18.1-2,34.6-8.4,52.4-13.3c8.1-2.2,18.1-2.2,25.6-5.3c9.8-4.1,15.4-10.7,26.5-13.3
		c4.5-1.1,7.6,0.4,12.2-1.7c3.9-1.8,6.3-7.9,10-8.8c5.5-1.4,15.4,3.8,20.2,5.8c10.8,4.5,24.2,13.7,37,13.3
		c30.6-0.9,49.2-28.8,80.9-21.6c5.7,1.3,13,2.2,18.7,4.4c6.4,2.5,11.8,8.8,17.6,10.6c6.5,2,10.5,1.2,17.2,5.3c6.5,4,10.7,9.2,20,8.1
		c7.6-0.9,14.6-6.3,22.7-8.2c11.4-2.5,19.5-8.1,30.5-12.1c9.5-3.4,18.2-11.4,26.9-14.4c3.4-1.2,8.2,0.7,11.2-0.6
		c5-2.1,3.4-7.8,7.1-11c12.5-10.7,34.2-24.4,48.1-23.6c14.1,0.8,20.8,10,30.5,14.4c7.4,3.3,16.9,2.9,24.1,7.1
		c5.3,3.1,7.3,12.1,14.2,16.3c17,10.5,38.4,0.7,56.7-2.4c10.1-1.7,16.8-4.1,26.8-7c13.9-4,18.3-0.3,30.5-1.6c18.7-2,29.2-7.1,50-5.8
		c45,2.8,83.3-25.8,128-27.2c1.7-30,43.8-3.4,59.2,2.4c14.5,5.4,31.3,3.8,44.4,8.5c7,2.5,14.2,12.2,23.8,16.1
		c7.6,3.1,17.9,5.2,26.5,6c12.7,1.2,15.5-0.4,27,4.3c12.4,5,11.6,12,25.9,7.7c4.2-1.2,21.6-14.6,25.2-17.7
		c4.9-4.2,10.4-10.9,16.1-16c8.8-7.9,18-7.3,27.1-11c6.8-2.8,14.7-8.3,22.1-11.1c13.4-5,15.5-2.4,28.9,1.6c2.1,0.6,8.5,6.2,11.4,7.5
		c1.7,0.8,9.4-1.2,13.2,0.1c21.3,7.3,42.7,19.3,64.3,24.2c9.9,2.2,20.7-0.7,30.6,2.1c11.5,3.3,13.3,10.1,26.5,10.3
		c5.9,0.1,21.6-5.7,29.2-7.9c9.9-2.8,19.6-11,29.3-13c0,0,27.2,4,28.8,4.6c9.9,3.9,10.3,11.1,17.3,13.7c6.8,2.6,25.9,3.1,33.3,4.4
		c15.2,2.5,6.7,7.4,24.5-1.6c18.9-9.6,27.8-27.8,44.3-39.8c6.2-4.5,16.3-11,26.4-10.1c16.2,1.5,13.9,7.8,26.1,14.9
		c16.5,9.6,34.2,11,50.4,21.9c8.1,5.4,22.2,8.7,28.7,14.1c7.1,5.9,5.1,12.1,14.7,17.4c3.9,2.1,27.6,11.1,30.6,11.7
		c5.1,1,14.5-2.4,18-1.2c4.4,1.5,11.7,5.3,14.3,6c5.9,1.7,4.7,4.9,14.1,6.6c6.4,1.1,14.7-4,22.6-2.4c2.2,0.4,5.4,2.1,9.1,4.2l0,282
		L0,802.5L0,534.4z"/>
	<path class="st3" d="M0.5,557.6c0.5-0.1,0.9-0.1,1.4-0.2c5.5-0.8,9.2-4.4,15.4-4.8c8.4-0.6,13.3,1.8,21,0
		c10-2.3,25.1-11.4,35.2-11.6c8.2-0.1,13.6,5,22.8,4.5c7.8-0.4,9.9-4.1,17.4-1.8c10.2,3.1,5.3,8.4,18.1,8.6c6.5,0.1,16-2.2,22.7-3.3
		c7.2-1.1,30.8-6.9,36.2-10.8c3.2-2.3,3.2-7.4,7.1-10.1c5.8-4.1,16.6-4.4,24.7-5c-0.8-2.6,1.2-6.5,0.4-9.1
		c8.7-0.3,23.7,3.5,30.7,7.9c5.5,3.5,7.5,10.1,14.5,12.2c7.5,2.2,17-2.8,24.4,0.6c11.4,5.2,5.3,8.8,19.9,9.8
		c7,0.5,13.4-1.2,20.3-0.9c7.9,0.3,15.5,2.9,23.7,0.6c7.4-2,10.6-6.9,18.5-8c10-1.4,24.8,3.1,35,3.8c13.4,1,15.6-0.4,26.5-4.1
		c14.6-5,28.4-9.3,42-12.6c19.3-4.7,23.5-5,40.5,5.8c12.1,7.7,8.6,4.1,22.3,1.2c7.1-1.5,13.2-0.5,19.9,0.8c10.2,2,15.4,4.8,25.5,2.4
		c9.5-2.2,18-8.9,27.6-11.6c6.8-1.9,12.3-1.9,18.3-5.5c7.3-4.4,5-9,14.8-9.1c7.7-0.1,20,9,26.3,12.3c10,5.3,23.1,5.1,32.3,11
		c7.4,4.7,11,10.1,20.8,12.3c11.6,2.6,13.4-3,22.7-3.3c7.2-0.2,13,5,19.9,5.9c7.3,0.9,14.2-1.6,22,0c10.3,2.1,15.3,3.9,26.2,3.6
		c9.5-0.3,16.7,2.6,25.4,3.3c7.3,0.6,13-3.1,18.1-3.1c13.6,0.2,24.3,11,38.2,12.5c14.2,1.4,30.6-5.3,44.3-7.7
		c8.2-1.5,12.9-7.1,19.9-8.3c8.7-1.4,13.4,5.2,21.5,6.6c8.2,1.5,15.1-3.3,22.6-3.4c8.1-0.1,12,1.8,19.5,0.1c9.8-2.2,7.4-7.6,19.6-1
		c6.6,3.5,15.1,17.1,24.2,17.3c7,0.2,12.1-6.2,21.9-5.8c5.9,0.2,10.9,2,16.7,2.6c15.5,1.6,25.1-8.1,40.9-0.2
		c10.2-4.3,18.4-6.2,29.5-7.1c10-0.8,30.2,0.5,39.3-2.6c7.3-2.5,8.9-9.4,15.2-12.8c6.8-3.6,14.5-2.1,21.8-3.6
		c12.8-2.7,21.7-5.6,32.6-11c8.6-4.3,17.4-9.5,27.5-11.1c16.7-2.6,18.3,7.2,31.3,12.7c3.1,1.3,9.4,0,12.1,1.3c4,2,2.2,5.8,5.8,8.1
		c5.3,3.3,10.5,3,15.7,5.1c23.4,9.5,31.1,12,54.5,2c13.7-5.8,35.6-16.7,51.3-14.1c6.1,1,10.7,5.7,16.7,7.1c7.2,1.7,13.9,1.3,21,3.8
		c18.6,6.6,37.3,11.1,55.9,17.2c9.2-6.1,31.8-8.8,44.3-9.2c18.2-0.7,27.1-10.4,40.7-15.6c9.6-3.7,10.9-4.5,22.5-5.6
		c13.3-1.2,9.8-1.4,21.2,3.4c8.4,3.5,19.3,3.6,27.3,6.9c8.1,3.3,12.9,10.2,21,13.6c7.5,3.2,17,2.1,24.1,5.6c3.6,1.8,6.6,4.1,9.9,6.2
		l0,276.6L0.6,839L0.5,557.6z"/>
	<g>
		<g>
			<g>
				<path class="st11" d="M717.4,539.2L717.4,539.2c0.2,0.1,0.4,0.2,0.7,0.3L717.4,539.2z"/>
			</g>
		</g>
	</g>
	<path class="st12" d="M0.6,606.9c0.8-0.1,1.6-0.2,2.4-0.4c21.4-3.7,40.5-3.8,62-5.5c19.3-1.5,38-5.8,57.2-6
		c22-0.2,36.9,8.5,57.6,8.5c19,0,36.8-0.1,55.5-1.5c19.8-1.5,34,7,52.4,8.2c13,0.9,20-5.5,31.3-9.5c14-4.9,23.6-1.8,37.7,2.5
		c30.8,9.2,55.8,0.6,87.3-2.6c28.5-2.9,56.4-10.3,85.2-11.7c31-1.5,63.2,7.4,94.3,8.5c38.6,1.3,77.3,5.1,115.9,2
		c19.6-1.6,40.5-9.1,59.8-9c18.4,0.2,31.5,8,50.7,6.9c25.7-1.5,48.3-0.8,73.6,3.8c19.3,3.5,38.1,7.3,58.1,5.4
		c27.3-2.6,45.9-7,73.1-2.2c31.3,5.5,60.7-1.5,92.1-2.4c29.6-0.9,59.3-3,88.9-0.8c32.7,2.5,65.9,3.2,98.8,3.2c33.1,0,62-9.1,94.2-13
		c63.2-7.7,127.5,3.5,190.8,3.7c33.4,0.1,65.8-7.1,99.3-7.1c18.4,0,36.6,2.7,54.8,4.6c5.9,0.6,12,1.4,18.2,2.3l0,244.2L0.6,839
		L0.6,606.9z"/>
</g>
<g id="XMLID_5_">
	<path id="XMLID_8_" class="st10" d="M1240,655.9c0,0,1.7-6.2-12.8-8.1c-12.8-1.8-16.2-5-28.8,1.5c-6-0.1-11.1-5.9-33.9,12.7
		c56.1,1.1,68.3,0.6,68.3,0.6L1240,655.9z"/>
	<path id="XMLID_7_" class="st2" d="M1273,663.8l-2.8-3.4h-2.6l-16-4l-10.2-1.1l-1.4,0.5l-8.8-1.1l-10.5,8.4
		C1220.6,663.1,1242.8,668.3,1273,663.8z"/>
	<path id="XMLID_6_" class="st14" d="M1178.6,652.2c0,0-4.9-2.5-6.9-2c-3.7,1-11.4,2.5-12.5,1c-4.6,1-11.1,1.3-15.4,7.3
		c24.9,0.4,24.9,0.4,24.9,0.4"/>
</g>
<g id="XMLID_9_">
	<path id="XMLID_12_" class="st10" d="M623.9,657.9c0,0-2.3-8.2,17-10.8c17-2.4,21.6-6.7,38.2,2c7.9-0.2,14.8-7.8,45,16.9
		c-74.5,1.5-90.8,0.7-90.8,0.7L623.9,657.9z"/>
	<path id="XMLID_11_" class="st14" d="M580,668.4c0.2-1.2,0.3-2.5,0.5-3.7c1.1-0.7,2.3-1.4,3.4-2c5.3-2.7,14-7,20.9-9.8
		c0.6-0.2,1.6-0.6,2.9-0.8c7.2-1.1,13.3,4.3,14.3,5.2c0.6,0.2,1.2,0.5,1.9,0.7c0.9-0.5,4.9-2.7,9.6-1.8c1.4,0.3,2.5,0.8,3.4,1.2
		c4.2,3.4,8.5,6.8,12.7,10.2c-6,1.1-12.6,2.1-19.8,2.7C610.4,671.9,593.3,670.5,580,668.4z"/>
	<path id="XMLID_10_" class="st2" d="M705.5,653c2.1-1,5.3-2.2,9.2-2.7c7.6-1.1,13.8,0.7,16.6,1.8c2.5,0,9.5,0.2,15.5,4.4
		c2.3,1.6,3.9,3.4,4.9,4.8c-33.1,0.5-33.1,0.5-33.1,0.5L705.5,653z"/>
</g>
</svg>
