<?xml version="1.0" encoding="utf-8"?>
<!-- Generator: Adobe Illustrator 22.1.0, SVG Export Plug-In . SVG Version: 6.00 Build 0)  -->
<svg version="1.1" id="Calque_1" xmlns="http://www.w3.org/2000/svg" xmlns:xlink="http://www.w3.org/1999/xlink" x="0px" y="0px"
	 viewBox="0 0 1791 755" style="enable-background:new 0 0 1791 755;" xml:space="preserve">
<style type="text/css">
	.st0{fill:#410C00;}
	.st1{fill:#AD7662;}
	.st2{fill:#FFFFDE;}
	.st3{fill:#5A0905;}
	.st4{fill:url(#SVGID_1_);}
	.st5{fill:url(#SVGID_2_);}
	.st6{fill:#330833;}
	.st7{fill:#2F3344;}
</style>
<linearGradient id="SVGID_1_" gradientUnits="userSpaceOnUse" x1="1" y1="524.2195" x2="1790" y2="524.2195">
	<stop  offset="0" style="stop-color:#81CCC6"/>
	<stop  offset="3.679997e-02" style="stop-color:#7FCBC5"/>
	<stop  offset="0.1793" style="stop-color:#74C7C0"/>
	<stop  offset="0.4276" style="stop-color:#58BAB2"/>
	<stop  offset="0.7498" style="stop-color:#2AA79C"/>
	<stop  offset="1" style="stop-color:#019689"/>
</linearGradient>
<path class="st4" d="M1,518.6c0,0,156.8-16.8,209.8-8.6c53,8.2,83.9,1.9,97.2-2.3c13.3-4.1,110.4-48.4,148-41.8
	c37.5,6.6,48.6,19.4,64,11.2c15.5-8.2,46.4-17.7,68.5-11.2c22.1,6.6,13.2,5.4,22.1-2.2c8.8-7.6,22.6-36,49.7-24.5
	c21.1,8.9,30.6,41.9,60.7,17.8c28.7-23,46.4-24.7,72.9-19.2c26.5,5.5,48.6,8.2,79.5,5.5c30.9-2.7,64-16.4,123.7,9.1
	c59.6,25.6,90.5,45.7,119.3,38.8c28.7-6.9,103.8-34.3,121.5-32.4c17.7,1.8,55.2,18.4,68.5,18.3c13.2-0.1,11,13.6,132.5-5.6
	c0,0,28.7-8.2,66.3,0c37.5,8.2,74,22.8,118.2,15.5c44.2-7.3,122.6-21.1,152.4-15.5c14.5,2.7,14.5,2.7,14.5,2.7v138.8H1V518.6z"/>
<linearGradient id="SVGID_2_" gradientUnits="userSpaceOnUse" x1="1" y1="556.9047" x2="1790" y2="556.9047">
	<stop  offset="0" style="stop-color:#3A4268"/>
	<stop  offset="0.1518" style="stop-color:#3C4C6E"/>
	<stop  offset="0.4054" style="stop-color:#40657D"/>
	<stop  offset="0.7274" style="stop-color:#478F95"/>
	<stop  offset="0.9719" style="stop-color:#4DB3AA"/>
	<stop  offset="1" style="stop-color:#4EB7AD"/>
</linearGradient>
<path class="st5" d="M1,547.9c0,0,291.5-27.5,348.9-32c57.4-4.5,68.5,13.3,115.9,21.7c47.5,8.4,124.8-27.2,171.2-38
	c46.4-10.9,106-30.6,156.8-12.8c50.8,17.8,159,75,291.5,38.5c132.5-36.5,198.8-36.5,293.7-18.8c95,17.8,88.3,19.9,139.1,9.4
	c50.8-10.4,57.7-21.2,141.3-2.1C1743.2,532.8,1790,539,1790,539v95.2H1V547.9z"/>
<path class="st6" d="M1,556.8c0,0,188.8-20,203.7-16.3c14.9,3.7,56.3,33.3,71.2,31.8c14.9-1.5,104.4-13.3,115.9-9.6
	c11.6,3.7,152.4,68.9,217,66.6c64.6-2.2,72.9-5.8,102.7,0.1c29.8,5.9,59.6,1.5,106,0c46.4-1.5,129.2-8.2,226.9-1.5
	c97.7,6.7,180.5,3,237.7-2.6c57.1-5.6,125.9-38.1,169.8-32.6c43.9,5.6,53-6.7,82-11.1c29-4.4,47.8-12,107.9-2.3
	c60.2,9.6,58.5,12.8,71.2,4.7c12.7-8.1,44.7-49.4,55.2-47.9c10.5,1.5,21.7,11.8,21.7,11.8v215.1H1V556.8z"/>
<polygon class="st6" points="243,607 268,527.2 293,607 "/>
<polygon class="st6" points="168.9,563.1 193.9,483.4 218.9,563.1 "/>
<polygon class="st6" points="311.4,589 336.4,509.2 361.3,589 "/>
<polygon class="st6" points="361.3,607 386.3,527.2 411.3,607 "/>
<polygon class="st6" points="549.2,646.8 574.2,567.1 599.1,646.8 "/>
<polygon class="st6" points="458.6,621.6 483.6,541.9 508.5,621.6 "/>
<polygon class="st6" points="610.8,637.5 635.7,557.8 660.7,637.5 "/>
<polygon class="st6" points="719.3,635.1 737,578.8 754.6,635.1 "/>
<polygon class="st6" points="1005.1,638 1024.9,574.9 1044.6,638 "/>
<polygon class="st6" points="1122.4,646.8 1147.3,567.1 1172.3,646.8 "/>
<polygon class="st6" points="1330.9,623.8 1355.8,544 1380.8,623.8 "/>
<polygon class="st6" points="1435.5,611.5 1460.4,531.7 1485.4,611.5 "/>
<polygon class="st6" points="1594.2,589 1619.2,509.2 1644.2,589 "/>
<polygon class="st6" points="1640.3,589 1656.1,538.6 1671.8,589 "/>
<polygon class="st6" points="1534.8,596.8 1550.6,546.4 1566.4,596.8 "/>
<polygon class="st6" points="1487,599.5 1502.8,549.1 1518.6,599.5 "/>
<polygon class="st6" points="1380.8,608.9 1396.6,558.6 1412.4,608.9 "/>
<polygon class="st6" points="1182.2,639.3 1198,589 1213.7,639.3 "/>
<polygon class="st6" points="1299.3,633.3 1315.1,583 1330.9,633.3 "/>
<polygon class="st6" points="1073.1,636.6 1088.8,586.3 1104.6,636.6 "/>
<polygon class="st6" points="880.9,632.1 896.6,581.8 912.4,632.1 "/>
<polygon class="st6" points="912.4,629.2 926.3,579.6 940.1,629.2 "/>
<polygon class="st6" points="868.9,632.1 877.6,601 886.3,632.1 "/>
<polygon class="st6" points="815.3,632.1 824,601 832.7,632.1 "/>
<polygon class="st6" points="762.8,644.8 780.6,581.1 798.4,644.8 "/>
<polygon class="st6" points="844.2,634.4 852.9,603.3 861.6,634.4 "/>
<polygon class="st6" points="750.4,634.4 759.1,603.3 767.8,634.4 "/>
<polygon class="st6" points="706.4,632.1 715.1,601 723.8,632.1 "/>
<polygon class="st6" points="655,632.1 663.7,601 672.4,632.1 "/>
<polygon class="st6" points="356,576.1 364.7,545 373.3,576.1 "/>
<polygon class="st6" points="423.3,594.4 432,563.2 440.7,594.4 "/>
<polygon class="st6" points="602.1,632.1 610.8,601 619.4,632.1 "/>
<polygon class="st6" points="942.7,630.6 951.4,599.5 960.1,630.6 "/>
<polygon class="st6" points="1222.2,632.1 1230.9,601 1239.6,632.1 "/>
<polygon class="st6" points="1060,636.8 1068.7,605.7 1077.4,636.8 "/>
<polygon class="st6" points="957.1,627 969.2,583.9 981.2,627 "/>
<polygon class="st6" points="1044.6,635.7 1056.7,592.6 1068.7,635.7 "/>
<polygon class="st6" points="1274.6,628.5 1294.9,563.6 1315.1,628.5 "/>
<polygon class="st6" points="1110.3,635.2 1122.4,592.1 1134.4,635.2 "/>
<polygon class="st6" points="1258.8,646.2 1270.9,603.1 1282.9,646.2 "/>
<polygon class="st6" points="1679.3,600.4 1691.4,557.2 1703.4,600.4 "/>
<polygon class="st6" points="583.7,629.7 595.8,586.6 607.8,629.7 "/>
<polygon class="st6" points="399.2,588.7 411.3,545.5 423.3,588.7 "/>
<polygon class="st6" points="679.1,628.5 691.2,585.4 703.2,628.5 "/>
<polygon class="st6" points="795.9,646.5 811.7,596.1 827.4,646.5 "/>
<polygon class="st6" points="508.5,624.7 524.3,574.3 540.1,624.7 "/>
<polygon class="st6" points="442.8,600.1 458.6,549.7 474.4,600.1 "/>
</svg>
