<?xml version="1.0" encoding="utf-8"?>
<!-- Generator: Adobe Illustrator 22.1.0, SVG Export Plug-In . SVG Version: 6.00 Build 0)  -->
<svg version="1.1" id="Calque_1" xmlns="http://www.w3.org/2000/svg" xmlns:xlink="http://www.w3.org/1999/xlink" x="0px" y="0px"
	 viewBox="0 0 318 325" style="enable-background:new 0 0 318 325;" xml:space="preserve">
<style type="text/css">
	.st0{fill:none;stroke:url(#SVGID_1_);stroke-width:3;stroke-miterlimit:10;}
	.st1{fill:none;stroke:url(#SVGID_2_);stroke-width:3;stroke-miterlimit:10;}
	.st2{fill:none;stroke:url(#SVGID_3_);stroke-width:3;stroke-miterlimit:10;}
	.st3{fill:none;stroke:url(#SVGID_4_);stroke-width:3;stroke-miterlimit:10;}
	.st4{fill:none;stroke:url(#SVGID_5_);stroke-width:3;stroke-miterlimit:10;}
	.st5{fill:none;stroke:url(#SVGID_6_);stroke-width:3;stroke-miterlimit:10;}
	.st6{fill:none;stroke:url(#SVGID_7_);stroke-width:3;stroke-miterlimit:10;}
	.st7{fill:none;stroke:url(#SVGID_8_);stroke-width:3;stroke-miterlimit:10;}
	.st8{fill:none;stroke:url(#SVGID_9_);stroke-width:3;stroke-miterlimit:10;}
	.st9{fill:none;stroke:url(#SVGID_10_);stroke-width:3;stroke-miterlimit:10;}
	.st10{fill:none;stroke:url(#SVGID_11_);stroke-width:3;stroke-miterlimit:10;}
	.st11{fill:none;stroke:url(#SVGID_12_);stroke-width:3;stroke-miterlimit:10;}
	.st12{fill:none;stroke:url(#SVGID_13_);stroke-width:3;stroke-miterlimit:10;}
	.st13{fill:none;stroke:url(#SVGID_14_);stroke-width:3;stroke-miterlimit:10;}
	.st14{fill:none;stroke:url(#SVGID_15_);stroke-width:3;stroke-miterlimit:10;}
	.st15{fill:none;stroke:url(#SVGID_16_);stroke-width:3;stroke-miterlimit:10;}
	.st16{fill:none;stroke:url(#SVGID_17_);stroke-width:3;stroke-miterlimit:10;}
	.st17{fill:none;stroke:url(#SVGID_18_);stroke-width:3;stroke-miterlimit:10;}
	.st18{fill:none;stroke:url(#SVGID_19_);stroke-width:3;stroke-miterlimit:10;}
	.st19{fill:none;stroke:url(#SVGID_20_);stroke-width:3;stroke-miterlimit:10;}
	.st20{fill:none;stroke:url(#SVGID_21_);stroke-width:3;stroke-miterlimit:10;}
	.st21{fill:none;stroke:url(#SVGID_22_);stroke-width:3;stroke-miterlimit:10;}
	.st22{fill:none;stroke:url(#SVGID_23_);stroke-width:3;stroke-miterlimit:10;}
</style>
<g>
	<linearGradient id="SVGID_1_" gradientUnits="userSpaceOnUse" x1="71.8218" y1="267.0517" x2="238.7269" y2="267.0517">
		<stop  offset="0" style="stop-color:#FF543C"/>
		<stop  offset="0.1226" style="stop-color:#FF4B40"/>
		<stop  offset="0.3208" style="stop-color:#FF3349"/>
		<stop  offset="0.5685" style="stop-color:#FF0D59"/>
		<stop  offset="0.6412" style="stop-color:#FF005E"/>
	</linearGradient>
	<path class="st0" d="M73.3,231.3c0.8,4.6,1.9,11.1,3.4,19.1c2,10.6,2.4,12,2.9,13.7c2.7,7.7,6.7,12.4,13.2,20.1
		c6.4,7.6,12.1,12.4,17.1,16.6c6.1,5.2,9.3,7.8,14.2,10.3c7.3,3.7,13.7,4.8,17.1,5.4c2.8,0.5,9.5,1.4,18.1,0.5
		c3.2-0.3,9.4-1.2,16.6-3.9c10.9-4,18-9.8,21.5-12.7c1.7-1.4,6-5.1,10.8-10.8c1.9-2.3,5.6-6.8,8.8-12.7c4.4-8.1,2.9-10,7.3-23
		c3.5-10.1,5-11,8.3-21c2.4-7.2,3.7-13.2,4.4-17.1"/>
	<linearGradient id="SVGID_2_" gradientUnits="userSpaceOnUse" x1="125.1386" y1="258.3861" x2="184.9633" y2="258.3861">
		<stop  offset="0" style="stop-color:#FF543C"/>
		<stop  offset="0.1226" style="stop-color:#FF4B40"/>
		<stop  offset="0.3208" style="stop-color:#FF3349"/>
		<stop  offset="0.5685" style="stop-color:#FF0D59"/>
		<stop  offset="0.6412" style="stop-color:#FF005E"/>
	</linearGradient>
	<path class="st1" d="M126.6,259.2c-0.3-1.4,7.2-3.8,12.2-5.4c7.1-2.3,9.4-2.1,11.3-1.5c2.5,0.8,2.8,2.1,5.4,2.4
		c3.2,0.5,4.5-1.2,7.8-1.5c3-0.3,5.1,0.8,9.3,2.9c4.9,2.5,11.4,6.9,10.8,8.3c-0.3,0.7-3,0.3-8.3-0.5c-6.6-1-8.1-1.6-11.7-1.5
		c-3.4,0.1-3.4,0.8-6.4,1c-5.4,0.4-8.1-1.5-13.2-2.9C133.8,257.9,126.9,260.5,126.6,259.2z"/>
	<linearGradient id="SVGID_3_" gradientUnits="userSpaceOnUse" x1="125.485" y1="265.8808" x2="182.2223" y2="265.8808">
		<stop  offset="0" style="stop-color:#FF543C"/>
		<stop  offset="0.1226" style="stop-color:#FF4B40"/>
		<stop  offset="0.3208" style="stop-color:#FF3349"/>
		<stop  offset="0.5685" style="stop-color:#FF0D59"/>
		<stop  offset="0.6412" style="stop-color:#FF005E"/>
	</linearGradient>
	<path class="st2" d="M126.6,259.2c1.9,2.3,5.1,5.6,9.8,8.3c9.2,5.3,18.3,4.7,23,4.4c10.1-0.6,17.7-4.3,22-6.9"/>
	<linearGradient id="SVGID_4_" gradientUnits="userSpaceOnUse" x1="132.9764" y1="225.5891" x2="143.8838" y2="225.5891">
		<stop  offset="0" style="stop-color:#FF543C"/>
		<stop  offset="0.1226" style="stop-color:#FF4B40"/>
		<stop  offset="0.3208" style="stop-color:#FF3349"/>
		<stop  offset="0.5685" style="stop-color:#FF0D59"/>
		<stop  offset="0.6412" style="stop-color:#FF005E"/>
	</linearGradient>
	<path class="st3" d="M140.3,216.1c-0.7,1.6-1.8,3.8-3.4,6.4c-1.7,2.7-2.5,3.4-2.4,4.9c0,2.7,2.5,4.9,4.4,5.9c2,1,3.9,1,4.9,1"/>
	<linearGradient id="SVGID_5_" gradientUnits="userSpaceOnUse" x1="142.4096" y1="230.6564" x2="156.2948" y2="230.6564">
		<stop  offset="0" style="stop-color:#FF543C"/>
		<stop  offset="0.1226" style="stop-color:#FF4B40"/>
		<stop  offset="0.3208" style="stop-color:#FF3349"/>
		<stop  offset="0.5685" style="stop-color:#FF0D59"/>
		<stop  offset="0.6412" style="stop-color:#FF005E"/>
	</linearGradient>
	<path class="st4" d="M143.3,230.3c0.8-0.6,2.1-1.3,3.9-1.5c4.7-0.3,7.7,4.2,7.8,4.4"/>
	<linearGradient id="SVGID_6_" gradientUnits="userSpaceOnUse" x1="165.4816" y1="233.1818" x2="178.7556" y2="233.1818">
		<stop  offset="0" style="stop-color:#FF543C"/>
		<stop  offset="0.1226" style="stop-color:#FF4B40"/>
		<stop  offset="0.3208" style="stop-color:#FF3349"/>
		<stop  offset="0.5685" style="stop-color:#FF0D59"/>
		<stop  offset="0.6412" style="stop-color:#FF005E"/>
	</linearGradient>
	<path class="st5" d="M166.3,233.2c0.4-0.3,3.7-2.3,7.3-1c2.2,0.8,3.4,2.3,3.9,2.9"/>
	<linearGradient id="SVGID_7_" gradientUnits="userSpaceOnUse" x1="171.5964" y1="231.3186" x2="184.9881" y2="231.3186">
		<stop  offset="0" style="stop-color:#FF543C"/>
		<stop  offset="0.1226" style="stop-color:#FF4B40"/>
		<stop  offset="0.3208" style="stop-color:#FF3349"/>
		<stop  offset="0.5685" style="stop-color:#FF0D59"/>
		<stop  offset="0.6412" style="stop-color:#FF005E"/>
	</linearGradient>
	<path class="st6" d="M171.7,240.1c1.3,0.1,3.4,0.1,5.9-0.5c2.5-0.6,4.4-1,5.4-2.4c0.8-1.2,0.7-2.6,0-5.9c-0.5-2.6-1.3-5.9-2.4-9.8"
		/>
	<linearGradient id="SVGID_8_" gradientUnits="userSpaceOnUse" x1="101.1631" y1="181.5635" x2="141.9136" y2="181.5635">
		<stop  offset="0" style="stop-color:#FF543C"/>
		<stop  offset="0.1226" style="stop-color:#FF4B40"/>
		<stop  offset="0.3208" style="stop-color:#FF3349"/>
		<stop  offset="0.5685" style="stop-color:#FF0D59"/>
		<stop  offset="0.6412" style="stop-color:#FF005E"/>
	</linearGradient>
	<path class="st7" d="M102.7,181.8c0-0.6,0.5-1.3,8.8-4.4c6.1-2.3,7.2-2.4,7.8-2.4c3-0.2,5.1,0.5,9.3,2c5,1.7,9.8,4.2,10.2,4.4
		c0,0,0,0,0,0c1.1,0.6,1.8,2.1,1.5,2.9c-0.3,0.9-1.6,1.2-2.9,1.5c-4.2,0.9-6.3,1.3-8.3,1.5c-6.2,0.5-5.1,1-8.3,1
		c-2.3,0-6.5-0.2-11.3-2C106.9,185.2,102.6,183.6,102.7,181.8z"/>
	<linearGradient id="SVGID_9_" gradientUnits="userSpaceOnUse" x1="111.8335" y1="181.83" x2="129.4924" y2="181.83">
		<stop  offset="0" style="stop-color:#FF543C"/>
		<stop  offset="0.1226" style="stop-color:#FF4B40"/>
		<stop  offset="0.3208" style="stop-color:#FF3349"/>
		<stop  offset="0.5685" style="stop-color:#FF0D59"/>
		<stop  offset="0.6412" style="stop-color:#FF005E"/>
	</linearGradient>
	<path class="st8" d="M113.4,176.9c-0.1,0.6-0.2,1.4,0,2.4c0.3,1.7,1.1,2.9,1.5,3.4c0.6,0.8,1.6,2.2,3.4,2.9c2.2,0.9,4.2,0.3,4.9,0
		c2.5-0.9,3.6-2.9,3.9-3.4c1.5-2.7,0.6-5.4,0.5-5.9"/>
	<linearGradient id="SVGID_10_" gradientUnits="userSpaceOnUse" x1="98.3225" y1="175.3994" x2="133.4592" y2="175.3994">
		<stop  offset="0" style="stop-color:#FF543C"/>
		<stop  offset="0.1226" style="stop-color:#FF4B40"/>
		<stop  offset="0.3208" style="stop-color:#FF3349"/>
		<stop  offset="0.5685" style="stop-color:#FF0D59"/>
		<stop  offset="0.6412" style="stop-color:#FF005E"/>
	</linearGradient>
	<path class="st9" d="M99.2,179.4c2.6-2,6.9-4.8,12.7-6.4c9.5-2.6,17.6-0.6,21,0.5"/>
	<linearGradient id="SVGID_11_" gradientUnits="userSpaceOnUse" x1="182.3888" y1="188.2955" x2="216.7612" y2="188.2955">
		<stop  offset="0" style="stop-color:#FF543C"/>
		<stop  offset="0.1226" style="stop-color:#FF4B40"/>
		<stop  offset="0.3208" style="stop-color:#FF3349"/>
		<stop  offset="0.5685" style="stop-color:#FF0D59"/>
		<stop  offset="0.6412" style="stop-color:#FF005E"/>
	</linearGradient>
	<path class="st10" d="M183.9,189.7c0.4,2.7,7.4,3.7,12.2,4.4c3.8,0.6,6.9,1,10.8,0c3.3-0.9,7.8-2.9,7.8-2.9l0,0c0,0-1.5-3-2.4-4.4
		c-2.2-3.1-6.4-3.9-9.3-4.4c-1.5-0.3-5.3-0.9-9.8,0.5C189.4,184,183.5,187.1,183.9,189.7z"/>
	<linearGradient id="SVGID_12_" gradientUnits="userSpaceOnUse" x1="192.8977" y1="188.3442" x2="210.8133" y2="188.3442">
		<stop  offset="0" style="stop-color:#FF543C"/>
		<stop  offset="0.1226" style="stop-color:#FF4B40"/>
		<stop  offset="0.3208" style="stop-color:#FF3349"/>
		<stop  offset="0.5685" style="stop-color:#FF0D59"/>
		<stop  offset="0.6412" style="stop-color:#FF005E"/>
	</linearGradient>
	<path class="st11" d="M195.7,182.3c-0.3,0.5-0.7,1.4-1,2.4c-0.2,0.8-0.5,2.2,0,3.9c0.6,2,2,3.1,2.4,3.4c1.6,1.2,3.2,1.4,3.9,1.5
		c0.8,0.1,2.8,0.3,4.9-1c0.5-0.3,2.1-1.3,2.9-3.4c0.9-2.3,0.2-4.4,0-4.9"/>
	<linearGradient id="SVGID_13_" gradientUnits="userSpaceOnUse" x1="183.5616" y1="184.99" x2="223.7065" y2="184.99">
		<stop  offset="0" style="stop-color:#FF543C"/>
		<stop  offset="0.1226" style="stop-color:#FF4B40"/>
		<stop  offset="0.3208" style="stop-color:#FF3349"/>
		<stop  offset="0.5685" style="stop-color:#FF0D59"/>
		<stop  offset="0.6412" style="stop-color:#FF005E"/>
	</linearGradient>
	<path class="st12" d="M184.4,183.3c2.4-1.6,7.5-4.5,14.2-4.4c6.6,0.1,11.3,2.9,14.7,4.9c4.4,2.6,7.5,5.7,9.3,7.8"/>
	<linearGradient id="SVGID_14_" gradientUnits="userSpaceOnUse" x1="90.1729" y1="154.0601" x2="151.6693" y2="154.0601">
		<stop  offset="0" style="stop-color:#FF543C"/>
		<stop  offset="0.1226" style="stop-color:#FF4B40"/>
		<stop  offset="0.3208" style="stop-color:#FF3349"/>
		<stop  offset="0.5685" style="stop-color:#FF0D59"/>
		<stop  offset="0.6412" style="stop-color:#FF005E"/>
	</linearGradient>
	<path class="st13" d="M92.4,159.8c1.9-3.8,5.6-6,8.3-7.3c6.3-3.2,11.7-4.7,14.2-5.4c5.5-1.4,8.2-2.1,12.2-2
		c6.3,0.3,10.7,2.4,11.7,2.9c1.7,0.9,3.3,2,6.4,4.4c4.6,3.5,5.1,4.6,4.9,5.4c-0.2,0.9-1.2,1.4-2.4,2c-1.8,0.9-3.5,1-3.9,1
		c-4,0.2-6.5-1.1-9.8-1.5c-3.9-0.5-3.5,0.9-10.3,1.5c-5,0.4-4.7-0.4-10.8,0c-4.2,0.3-4.2,0.6-9.8,1c-4.7,0.3-4.8,0-6.9,0.5
		c-2.2,0.5-3.8,1.2-4.4,0.5C91.3,162,92.1,160.4,92.4,159.8z"/>
	<linearGradient id="SVGID_15_" gradientUnits="userSpaceOnUse" x1="182.2471" y1="166.7162" x2="237.3999" y2="166.7162">
		<stop  offset="0" style="stop-color:#FF543C"/>
		<stop  offset="0.1226" style="stop-color:#FF4B40"/>
		<stop  offset="0.3208" style="stop-color:#FF3349"/>
		<stop  offset="0.5685" style="stop-color:#FF0D59"/>
		<stop  offset="0.6412" style="stop-color:#FF005E"/>
	</linearGradient>
	<path class="st14" d="M184.4,166.2c-1.2-1.4-0.6-4.1,0.5-5.9c1.8-2.8,5.1-3.4,10.8-4.4c5.7-1,9-1.5,13.2-0.5
		c3.3,0.8,5.8,2.5,10.8,5.9c4.2,2.9,8.4,6.2,12.2,10.8c1.7,2,4.6,5.4,3.9,6.4c-0.7,0.9-3.8-1.4-10.8-3.4c-5.7-1.7-6-0.8-9.8-2.4
		c-4.3-1.8-4.8-3.3-8.3-3.9c-2.9-0.5-2.9,0.3-7.3,0c-4-0.3-4-1.1-8.3-1.5C186.9,166.7,185.4,167.4,184.4,166.2z"/>
	<linearGradient id="SVGID_16_" gradientUnits="userSpaceOnUse" x1="72.6456" y1="196.9724" x2="249.7041" y2="196.9724">
		<stop  offset="0" style="stop-color:#FF543C"/>
		<stop  offset="0.1226" style="stop-color:#FF4B40"/>
		<stop  offset="0.3208" style="stop-color:#FF3349"/>
		<stop  offset="0.5685" style="stop-color:#FF0D59"/>
		<stop  offset="0.6412" style="stop-color:#FF005E"/>
	</linearGradient>
	<path class="st15" d="M73.3,169.6c0.6,0.3,1.6,0.7,2.9,1c1.8,0.4,2.7,0,3.9,0.5c1.5,0.5,2.4,1.7,2.9,2.4c2.3,3.1,2,7.3,2,8.8
		c0,0-0.3,6.6,2.4,16.2c2.6,9.1,10.2,14.5,11.7,15.7c10.4,7.4,22,5.9,26.4,5.4c4.2-0.5,9.5-1.2,14.7-4.9c5.1-3.6,8.1-8.7,12.2-15.7
		c1.8-3,3.1-5.6,3.9-7.3v-3.4l-1.5-2c-0.2-0.5-0.3-1.3,0-2c0.5-1,1.8-1.3,3.4-1.5c4-0.5,6-0.7,8.8,0c2.2,0.6,6.4,2.1,6.4,3.9
		c0,0.4-0.2,1-0.5,1.5c0,0-0.2,0.4-1.5,1.5c-0.2,0.9-0.4,2.3-0.5,3.9c-0.1,3.5,0.8,6,1.5,8.3c2.1,7.1,1.1,7.3,2.4,10.8
		c2.2,5.5,6.5,8.7,9.3,10.8c9.2,6.8,19.2,7,23,6.9c3.4-0.1,9.8-0.4,16.2-4.4c8.3-5.3,11.8-14.1,12.2-15.2c0.8-2.1,3.2-9.1,5.4-13.2
		c0.5-1,1.2-2.4,2.4-3.9c1.1-1.5,2.4-2.9,2.4-2.9c1.5-1.6,1.7-1.8,2-2.4c0.4-1.1-0.2-1.4,0-3.4c0.1-1,0.3-1.6,0-2
		c-0.3-0.3-0.8-0.1-1.5,0c0,0-0.1,0-2.9,0c-2.8,0-8.1-1.9-8.3-2c0,0-2.8-1-8.8-2.9c-1.3-0.4-6.4-2-12.7-2.9c-4-0.6-8.2-0.5-16.6-0.5
		c-8.4,0.1-9.7,0.5-10.8,1c-2.2,1-4,2.6-7.3,2.9c-1.3,0.1-2.9,0-3.9,0c-2.2-0.1-3.8-0.3-4.9-0.5c-3.6-0.5-6.8-0.7-11.7-1
		c-4.3-0.3-4.4-0.1-5.4-0.5c-3-1.1-3.3-2.9-6.9-4.9c-1.6-0.9-1.9-0.7-5.4-2c-4.3-1.5-6.3-2.6-8.3-3.4c-4.8-2-9.6-2.1-19.1-2.4
		c-2.1-0.1-4.5-0.1-11.7,0c-7.5,0.1-13.9,0.3-18.6,0.5l-8.3-0.5"/>
	<linearGradient id="SVGID_17_" gradientUnits="userSpaceOnUse" x1="87.8777" y1="191.5352" x2="151.7992" y2="191.5352">
		<stop  offset="0" style="stop-color:#FF543C"/>
		<stop  offset="0.1226" style="stop-color:#FF4B40"/>
		<stop  offset="0.3208" style="stop-color:#FF3349"/>
		<stop  offset="0.5685" style="stop-color:#FF0D59"/>
		<stop  offset="0.6412" style="stop-color:#FF005E"/>
	</linearGradient>
	<path class="st16" d="M91.9,174c-2,2.9-2.2,5.8-2.4,10.3c-0.1,2.1-0.3,6.9,1.5,12.7c1.1,3.8,2.1,7.1,4.9,10.3
		c3.7,4.2,8.2,5.5,14.7,7.3c2.8,0.8,6.6,1.9,11.7,2c4.3,0.1,8.4,0.1,12.7-2c6.4-3.1,9.4-9,11.7-13.7c1.2-2.4,3-6.1,3.4-11.3
		c0.2-2.9,0.5-6.5-1.5-10.3c-1.9-3.6-4.8-5.3-7.3-6.9c-4.1-2.5-7.6-3.2-13.7-4.4c-5.3-1.1-9.5-1.4-11.7-1.5
		c-5.3-0.2-8.1-0.4-11.7,0.5C100.6,168,95.1,169.3,91.9,174z"/>
	<linearGradient id="SVGID_18_" gradientUnits="userSpaceOnUse" x1="174.9056" y1="201.5417" x2="238.2667" y2="201.5417">
		<stop  offset="0" style="stop-color:#FF543C"/>
		<stop  offset="0.1226" style="stop-color:#FF4B40"/>
		<stop  offset="0.3208" style="stop-color:#FF3349"/>
		<stop  offset="0.5685" style="stop-color:#FF0D59"/>
		<stop  offset="0.6412" style="stop-color:#FF005E"/>
	</linearGradient>
	<path class="st17" d="M183.4,181.3c-1.5,1-3.1,2-4.4,3.9c-1.9,2.6-2.2,5.2-2.4,7.8c-0.2,1.9-0.5,6.1,1,11.7c1,4,2.1,8.2,5.4,12.2
		c5.2,6.4,12.6,8.1,15.7,8.8c7.9,1.8,14.3,0.1,18.1-1c2.7-0.7,4.8-1.3,7.3-2.9c4.8-3.1,7-7.3,8.8-10.8c1.9-3.7,4-7.7,3.9-13.2
		c0-2-0.2-6.2-2.9-10.3c-1.7-2.5-3.6-3.9-4.4-4.4c-2-1.4-3.4-1.6-7.8-2.9c-7.2-2.1-6.2-2.3-9.3-2.9c-1.6-0.4-5.4-1.1-10.3-1
		c-2.3,0-6.1,0.1-10.8,1.5C189.2,178.5,186.5,179.3,183.4,181.3z"/>
	<linearGradient id="SVGID_19_" gradientUnits="userSpaceOnUse" x1="224.9675" y1="241.2155" x2="246.9062" y2="241.2155">
		<stop  offset="0" style="stop-color:#FF543C"/>
		<stop  offset="0.1226" style="stop-color:#FF4B40"/>
		<stop  offset="0.3208" style="stop-color:#FF3349"/>
		<stop  offset="0.5685" style="stop-color:#FF0D59"/>
		<stop  offset="0.6412" style="stop-color:#FF005E"/>
	</linearGradient>
	<path class="st18" d="M226,250.3c0.6,0.5,1.6,1.3,2.9,1.5c0.5,0.1,1.8,0.1,4.9-2c1.9-1.3,3.8-2.6,5.4-4.9c1.5-2.2,1.5-3.4,2.9-7.3
		c0.7-1.9,1.8-4.6,3.4-7.8"/>
	<linearGradient id="SVGID_20_" gradientUnits="userSpaceOnUse" x1="55.1645" y1="227.1029" x2="73.9662" y2="227.1029">
		<stop  offset="0" style="stop-color:#FF543C"/>
		<stop  offset="0.1226" style="stop-color:#FF4B40"/>
		<stop  offset="0.3208" style="stop-color:#FF3349"/>
		<stop  offset="0.5685" style="stop-color:#FF0D59"/>
		<stop  offset="0.6412" style="stop-color:#FF005E"/>
	</linearGradient>
	<path class="st19" d="M73.8,233.7c-0.8,0.1-2,0.2-3.4,0c-6.1-0.7-9.7-5.2-10.3-5.9c-2.8-3.5-3.3-7.2-3.4-8.8"/>
	<linearGradient id="SVGID_21_" gradientUnits="userSpaceOnUse" x1="78.369" y1="137.892" x2="246.268" y2="137.892">
		<stop  offset="0" style="stop-color:#FF543C"/>
		<stop  offset="0.1226" style="stop-color:#FF4B40"/>
		<stop  offset="0.3208" style="stop-color:#FF3349"/>
		<stop  offset="0.5685" style="stop-color:#FF0D59"/>
		<stop  offset="0.6412" style="stop-color:#FF005E"/>
	</linearGradient>
	<path class="st20" d="M79.7,134.8c5.1-8.8,10.6-15,14.7-19.1c6.9-7,11.1-11.1,18.1-13.7c8.3-3.1,10.8-0.4,20.1-3.9
		c1.5-0.6,4.4-1.8,7.8-1c2.9,0.7,3.4,2.3,5.9,3.4c1.4,0.7,3.8,1.4,14.7-1.5c9.6-2.6,11.2-4.1,14.2-2.9c3.2,1.2,2.9,3.5,6.9,7.3
		c2.2,2.2,3.5,2.6,14.7,7.8c11.5,5.4,13.1,6.3,15.2,7.8c5,3.7,3.9,4.5,8.8,8.3c8.3,6.5,12.4,5.2,17.6,10.8c4.1,4.4,5.4,9.5,5.9,11.3
		c1.9,7.5-0.8,11.6-0.5,24.5c0.1,3.2,0.3,5.7,0.5,7.3"/>
	<linearGradient id="SVGID_22_" gradientUnits="userSpaceOnUse" x1="9.3519" y1="134.0396" x2="307.0092" y2="134.0396">
		<stop  offset="0" style="stop-color:#FF543C"/>
		<stop  offset="0.1226" style="stop-color:#FF4B40"/>
		<stop  offset="0.3208" style="stop-color:#FF3349"/>
		<stop  offset="0.5685" style="stop-color:#FF0D59"/>
		<stop  offset="0.6412" style="stop-color:#FF005E"/>
	</linearGradient>
	<path class="st21" d="M242.6,195c3.4,27.8-19.7,45.6,14.8,29.2c8.4-4,21.9-10.2,28-17.4c2.3-2.7,8.1-33.5,9.6-33.3
		c0.5,2,1.2,4,2,5.9c9.9,2,9.2-28.9,7.6-33.1c-4.4-12.3-17.1-18.5-21.8-31.5c-4.6-12.7-9.4-26.1-13.9-38.8
		c-5.9-16.8,1.1-25.5-14.3-39.3c-20.6-18.6-51.4-11.3-76.1-20.3c-29.4-10.7-39.3-11.7-68.4-5.8c-37,7.5-40.9,29.9-59.4,60.6
		C34.1,99,17.1,119,12.3,153.4c-1.6,11.7-3,25.8,2.2,36.8c2.7,5.7,11.1,8.8,13.2,15.2c2,6.1-4,13.2-2.9,19.5
		c5.2,29.8,27.1,44.6,52.8,31.4"/>
	<linearGradient id="SVGID_23_" gradientUnits="userSpaceOnUse" x1="56.1336" y1="177.5755" x2="81.1578" y2="177.5755">
		<stop  offset="0" style="stop-color:#FF543C"/>
		<stop  offset="0.1226" style="stop-color:#FF4B40"/>
		<stop  offset="0.3208" style="stop-color:#FF3349"/>
		<stop  offset="0.5685" style="stop-color:#FF0D59"/>
		<stop  offset="0.6412" style="stop-color:#FF005E"/>
	</linearGradient>
	<path class="st22" d="M56.7,219c1.7-0.7,4.3-1.8,6.9-3.9c1.1-0.9,3.3-2.7,4.9-5.4c0.9-1.4,1.8-3.6,2.4-11.7c0.5-6.9,0-7.4,0.5-13.2
		c0.5-5.5,1-4.8,1.5-10.3c0.5-5.7,0.1-7.6,1-12.2c0.6-3.2,1.4-5.3,2-6.9c1.5-4.3,3.2-10.9,3.9-20.6"/>
</g>
</svg>
