<?xml version="1.0" encoding="utf-8"?>
<!-- Generator: Adobe Illustrator 22.1.0, SVG Export Plug-In . SVG Version: 6.00 Build 0)  -->
<svg version="1.1" id="Calque_1" xmlns="http://www.w3.org/2000/svg" xmlns:xlink="http://www.w3.org/1999/xlink" x="0px" y="0px"
	 viewBox="0 0 385 292" style="enable-background:new 0 0 385 292;" xml:space="preserve">
<style type="text/css">
	.st0{fill:none;stroke:url(#SVGID_1_);stroke-width:3;stroke-miterlimit:10;}
	.st1{fill:none;stroke:url(#SVGID_2_);stroke-width:3;stroke-miterlimit:10;}
	.st2{fill:none;stroke:url(#SVGID_3_);stroke-width:3;stroke-miterlimit:10;}
	.st3{fill:none;stroke:url(#SVGID_4_);stroke-width:3;stroke-miterlimit:10;}
	.st4{fill:none;stroke:url(#SVGID_5_);stroke-width:3;stroke-miterlimit:10;}
	.st5{fill:none;stroke:url(#SVGID_6_);stroke-width:3;stroke-miterlimit:10;}
	.st6{fill:none;stroke:url(#SVGID_7_);stroke-width:3;stroke-miterlimit:10;}
	.st7{fill:none;stroke:url(#SVGID_8_);stroke-width:3;stroke-miterlimit:10;}
	.st8{fill:none;stroke:url(#SVGID_9_);stroke-width:3;stroke-miterlimit:10;}
	.st9{fill:none;stroke:url(#SVGID_10_);stroke-width:3;stroke-miterlimit:10;}
	.st10{fill:none;stroke:url(#SVGID_11_);stroke-width:3;stroke-miterlimit:10;}
	.st11{fill:none;stroke:url(#SVGID_12_);stroke-width:3;stroke-miterlimit:10;}
	.st12{fill:none;stroke:url(#SVGID_13_);stroke-width:3;stroke-miterlimit:10;}
	.st13{fill:none;stroke:url(#SVGID_14_);stroke-width:3;stroke-miterlimit:10;}
	.st14{fill:none;stroke:url(#SVGID_15_);stroke-width:3;stroke-miterlimit:10;}
	.st15{fill:none;stroke:url(#SVGID_16_);stroke-width:3;stroke-miterlimit:10;}
	.st16{fill:none;stroke:url(#SVGID_17_);stroke-width:3;stroke-miterlimit:10;}
	.st17{fill:none;stroke:url(#SVGID_18_);stroke-width:3;stroke-miterlimit:10;}
	.st18{fill:none;stroke:url(#SVGID_19_);stroke-width:3;stroke-miterlimit:10;}
	.st19{fill:none;stroke:url(#SVGID_20_);stroke-width:3;stroke-miterlimit:10;}
	.st20{fill:none;stroke:url(#SVGID_21_);stroke-width:3;stroke-miterlimit:10;}
	.st21{fill:url(#SVGID_22_);}
	.st22{fill:url(#SVGID_23_);}
</style>
<g>
	<linearGradient id="SVGID_1_" gradientUnits="userSpaceOnUse" x1="87.0677" y1="177.6808" x2="189.7099" y2="177.6808">
		<stop  offset="0" style="stop-color:#FF543C"/>
		<stop  offset="0.1226" style="stop-color:#FF4B40"/>
		<stop  offset="0.3208" style="stop-color:#FF3349"/>
		<stop  offset="0.5685" style="stop-color:#FF0D59"/>
		<stop  offset="0.6412" style="stop-color:#FF005E"/>
	</linearGradient>
	<path class="st0" d="M106.3,92.9c-5.1,4.1-8.1,8.4-9.8,11.2c-1.9,3.2-4.4,7.4-4.7,13c-0.2,4.2,1,5.5,1.9,10.3
		c1,5.7,0.2,10.5-1.4,20c-2.1,12.2-3.6,12.7-3.7,19.6c-0.1,4.9,0.7,8,2.3,15.4c0.4,1.7,4,17.9,5.6,27c4,22,0.8,26,6.5,36.4
		c4.9,9,10.8,12.3,12.1,13c6.6,3.6,13,3.5,17.7,3.3c9.8-0.4,15.8-3.4,27-7.9c6.8-2.8,16.8-6.6,29.4-10.7"/>
	<linearGradient id="SVGID_2_" gradientUnits="userSpaceOnUse" x1="142.496" y1="269.9554" x2="199.2111" y2="269.9554">
		<stop  offset="0" style="stop-color:#FF543C"/>
		<stop  offset="0.1226" style="stop-color:#FF4B40"/>
		<stop  offset="0.3208" style="stop-color:#FF3349"/>
		<stop  offset="0.5685" style="stop-color:#FF0D59"/>
		<stop  offset="0.6412" style="stop-color:#FF005E"/>
	</linearGradient>
	<path class="st1" d="M143.1,260.7c3,1.3,4.9,3,6.1,4.2c0.4,0.5,2.6,2.7,4.2,6.5c1.5,3.5,0.7,4.2,1.9,5.6c2.2,2.6,6.5,2.3,11.7,1.9
		c3.6-0.3,4.1-0.7,10.7-1.9c9.3-1.7,11.7-1.6,15.4-3.7c2.4-1.4,4.1-3,5.1-4.2"/>
	<linearGradient id="SVGID_3_" gradientUnits="userSpaceOnUse" x1="2.5" y1="151.4205" x2="147.7759" y2="151.4205">
		<stop  offset="0" style="stop-color:#FF543C"/>
		<stop  offset="0.1226" style="stop-color:#FF4B40"/>
		<stop  offset="0.3208" style="stop-color:#FF3349"/>
		<stop  offset="0.5685" style="stop-color:#FF0D59"/>
		<stop  offset="0.6412" style="stop-color:#FF005E"/>
	</linearGradient>
	<path class="st2" d="M144.5,20.6c-9.7-1.4-22.3-3.2-37.3-5.1c-10.3-1.3-16.3-2-23.8,0.5c-7,2.3-11.4,6.1-17.2,11.2
		c-7.9,6.9-15.7,13.7-20,24.2c-4.2,10.2-0.2,11.8-2.8,35.4c-1.5,13.8-2.3,21-6.5,29.8c-1.7,3.6-6.1,9.6-14.9,21.4
		C9.5,154.8,8.2,155.7,6.5,160.5C2.4,172,4.3,182.8,5.1,187c1.8,9.4,4.1,8.5,7.5,20.5c3,10.6,1.6,12.7,5.1,29.4
		c1.9,9,2.9,13.5,5.1,17.2c1.5,2.6,5.8,8.9,18.2,15.4c10.9,5.7,19.7,7.2,30.8,9.3c42.5,8.2,46.5,12.2,55.5,7.9
		c4.6-2.2,13.2-7.8,19.1-24.2"/>
	<linearGradient id="SVGID_4_" gradientUnits="userSpaceOnUse" x1="104.492" y1="143.8021" x2="382.5" y2="143.8021">
		<stop  offset="0" style="stop-color:#FF543C"/>
		<stop  offset="0.1226" style="stop-color:#FF4B40"/>
		<stop  offset="0.3208" style="stop-color:#FF3349"/>
		<stop  offset="0.5685" style="stop-color:#FF0D59"/>
		<stop  offset="0.6412" style="stop-color:#FF005E"/>
	</linearGradient>
	<path class="st3" d="M106.3,92.9c-0.3-2-0.9-7.2,1.9-12.6c2.4-4.6,5.9-6.8,8.4-8.4c2.8-1.8,9.5-6,16.8-4.7
		c6.1,1.1,6.8,5.2,15.8,11.7c5.6,4,5.6,2.7,16.8,8.9c11.4,6.3,17.4,9.7,22.8,16.3c3.7,4.5,7.3,8.9,7.5,14.9
		c0.1,7.2-4.9,8.2-10.3,19.6c-2.3,5-3.9,12.7-7,28c-1.3,6.6-2,9.9-1.9,12.1c0.5,8,4.1,10.7,9.8,22.4c4.4,9.1,7.3,14.9,7.9,22.8
		c0.6,7.5-1.4,8-1.9,20c-0.4,10.6-0.6,16.3,2.3,21.4c5,8.8,16.3,11,22.4,12.1c19.5,3.7,26.3-5.5,47.1-3.7
		c12.5,1.1,10.9,4.5,26.1,7.5c4.7,0.9,45.7,8.4,59.2-10.3c3.8-5.3,0.4-5.7,6.5-31.2c3-12.7,4.6-19.2,8.9-27
		c7.6-14.1,12.6-12.2,14.9-20.5c4-14.5-11.1-21.5-13-46.1c-1-12.6,2.9-11.4,1.4-21.4c-2-13.5-12.4-24.4-33.1-45.7
		c-5.8-6-12.5-12.9-22.4-21.4c-10.2-8.9-19.9-17.3-33.6-25.6c-25.8-15.7-49.4-21-62.5-23.8c-13.2-2.8-20.4-4.4-30.8-3.7
		c-20.3,1.3-35.7,10-44.3,15.8"/>
	<linearGradient id="SVGID_5_" gradientUnits="userSpaceOnUse" x1="140.9846" y1="108.4375" x2="189.8151" y2="108.4375">
		<stop  offset="0" style="stop-color:#FF543C"/>
		<stop  offset="0.1226" style="stop-color:#FF4B40"/>
		<stop  offset="0.3208" style="stop-color:#FF3349"/>
		<stop  offset="0.5685" style="stop-color:#FF0D59"/>
		<stop  offset="0.6412" style="stop-color:#FF005E"/>
	</linearGradient>
	<path class="st4" d="M142.6,113.9c-1.1-2.6,4-6.9,4.7-7.5c4.7-4,10.2-4.7,13.5-5.1c7.9-1,13.9,1,16.3,1.9c1.9,0.7,4.3,1.9,8.9,4.4
		c1.8,0.9,2.3,1.3,2.3,1.6c-0.2,1.1-6.6-0.2-14.4,0.9c-8.2,1.2-9,3.9-17.7,5.1C153.8,115.6,144,117,142.6,113.9z"/>
	<linearGradient id="SVGID_6_" gradientUnits="userSpaceOnUse" x1="91.3748" y1="111.7845" x2="113.7408" y2="111.7845">
		<stop  offset="0" style="stop-color:#FF543C"/>
		<stop  offset="0.1226" style="stop-color:#FF4B40"/>
		<stop  offset="0.3208" style="stop-color:#FF3349"/>
		<stop  offset="0.5685" style="stop-color:#FF0D59"/>
		<stop  offset="0.6412" style="stop-color:#FF005E"/>
	</linearGradient>
	<path class="st5" d="M91.8,117.1c4-1.3,6.9-1,8.9-0.5c1.8,0.5,3.1,1.3,6.1,1.9c2.6,0.5,4.4,0.8,5.1,0c1.3-1.5-1-6.1-3.7-8.9
		c-3.9-4.1-9.3-4.9-12.1-5.1"/>
	<linearGradient id="SVGID_7_" gradientUnits="userSpaceOnUse" x1="99.6073" y1="153.6667" x2="119.4349" y2="153.6667">
		<stop  offset="0" style="stop-color:#FF543C"/>
		<stop  offset="0.1226" style="stop-color:#FF4B40"/>
		<stop  offset="0.3208" style="stop-color:#FF3349"/>
		<stop  offset="0.5685" style="stop-color:#FF0D59"/>
		<stop  offset="0.6412" style="stop-color:#FF005E"/>
	</linearGradient>
	<path class="st6" d="M111.9,125.5c1.3,1.7,2.9,4.1,4.2,7.5c0.8,2.1,1.9,4.9,1.9,7.9c0,3.5-1.5,4.7-6.5,13.5
		c-5.2,9.1-3.6,7.8-6.5,12.1c-2,3-3.4,4.7-3.7,7.5c-0.3,3.3,1.1,6.1,2.3,7.9"/>
	<linearGradient id="SVGID_8_" gradientUnits="userSpaceOnUse" x1="103.2575" y1="180.2711" x2="109.7741" y2="180.2711">
		<stop  offset="0" style="stop-color:#FF543C"/>
		<stop  offset="0.1226" style="stop-color:#FF4B40"/>
		<stop  offset="0.3208" style="stop-color:#FF3349"/>
		<stop  offset="0.5685" style="stop-color:#FF0D59"/>
		<stop  offset="0.6412" style="stop-color:#FF005E"/>
	</linearGradient>
	<path class="st7" d="M104.4,177.7c1.4,1.7,2.8,3.4,4.2,5.1"/>
	<linearGradient id="SVGID_9_" gradientUnits="userSpaceOnUse" x1="115.9842" y1="180.8721" x2="131.604" y2="180.8721">
		<stop  offset="0" style="stop-color:#FF543C"/>
		<stop  offset="0.1226" style="stop-color:#FF4B40"/>
		<stop  offset="0.3208" style="stop-color:#FF3349"/>
		<stop  offset="0.5685" style="stop-color:#FF0D59"/>
		<stop  offset="0.6412" style="stop-color:#FF005E"/>
	</linearGradient>
	<path class="st8" d="M116.5,178.6c1.2-0.5,4.2-1.4,7.5-0.5c3.4,1,6.6,3.9,6.1,5.1c-0.2,0.5-1.2,1-5.1,0.5"/>
	<linearGradient id="SVGID_10_" gradientUnits="userSpaceOnUse" x1="124.3423" y1="180.5586" x2="142.1002" y2="180.5586">
		<stop  offset="0" style="stop-color:#FF543C"/>
		<stop  offset="0.1226" style="stop-color:#FF4B40"/>
		<stop  offset="0.3208" style="stop-color:#FF3349"/>
		<stop  offset="0.5685" style="stop-color:#FF0D59"/>
		<stop  offset="0.6412" style="stop-color:#FF005E"/>
	</linearGradient>
	<path class="st9" d="M124.5,188.4c1.7,0.1,6.4,0.3,10.7-2.8c1.2-0.9,3.5-2.5,4.7-5.6c1.5-3.9,0.4-7.4,0-8.4"/>
	<linearGradient id="SVGID_11_" gradientUnits="userSpaceOnUse" x1="97.1055" y1="206.9206" x2="141.3928" y2="206.9206">
		<stop  offset="0" style="stop-color:#FF543C"/>
		<stop  offset="0.1226" style="stop-color:#FF4B40"/>
		<stop  offset="0.3208" style="stop-color:#FF3349"/>
		<stop  offset="0.5685" style="stop-color:#FF0D59"/>
		<stop  offset="0.6412" style="stop-color:#FF005E"/>
	</linearGradient>
	<path class="st10" d="M98.8,209.4c-0.8-2.6,0.8-5.5,2.8-7c1.5-1.1,2.6-0.9,7.9-1.4c6.7-0.6,6.5-1.1,8.9-0.9
		c3.6,0.3,6.2,1.6,9.3,3.3c6.1,3.2,12.8,8.5,12.1,9.8c-0.5,0.9-4.1-1.1-12.1-1.9c-3.5-0.3-6.7-0.6-10.7,0c-6.4,1-7.9,3.2-12.1,2.3
		C103.9,213.4,99.8,212.5,98.8,209.4z"/>
	<linearGradient id="SVGID_12_" gradientUnits="userSpaceOnUse" x1="98.4582" y1="220.6476" x2="141.0914" y2="220.6476">
		<stop  offset="0" style="stop-color:#FF543C"/>
		<stop  offset="0.1226" style="stop-color:#FF4B40"/>
		<stop  offset="0.3208" style="stop-color:#FF3349"/>
		<stop  offset="0.5685" style="stop-color:#FF0D59"/>
		<stop  offset="0.6412" style="stop-color:#FF005E"/>
	</linearGradient>
	<path class="st11" d="M100.2,211.7c-0.2,1.1-1,5.8,1.9,10.3c3.1,4.7,8.1,5.7,9.8,6.1c5.1,1,9.2-0.7,13-2.3
		c1.3-0.5,6.7-2.9,11.7-8.4c1.5-1.6,2.5-3.1,3.3-4.2"/>
	<linearGradient id="SVGID_13_" gradientUnits="userSpaceOnUse" x1="107.4172" y1="214.4287" x2="137.015" y2="214.4287">
		<stop  offset="0" style="stop-color:#FF543C"/>
		<stop  offset="0.1226" style="stop-color:#FF4B40"/>
		<stop  offset="0.3208" style="stop-color:#FF3349"/>
		<stop  offset="0.5685" style="stop-color:#FF0D59"/>
		<stop  offset="0.6412" style="stop-color:#FF005E"/>
	</linearGradient>
	<path class="st12" d="M107.7,213.6c3.6,0.6,6.6,1.1,8.9,1.4c9.6,1.3,12.6,1.1,15.4,0c1.9-0.7,3.3-1.7,4.2-2.3"/>
	<linearGradient id="SVGID_14_" gradientUnits="userSpaceOnUse" x1="145.2558" y1="137.8133" x2="175.3735" y2="137.8133">
		<stop  offset="0" style="stop-color:#FF543C"/>
		<stop  offset="0.1226" style="stop-color:#FF4B40"/>
		<stop  offset="0.3208" style="stop-color:#FF3349"/>
		<stop  offset="0.5685" style="stop-color:#FF0D59"/>
		<stop  offset="0.6412" style="stop-color:#FF005E"/>
	</linearGradient>
	<path class="st13" d="M146.8,140.4c-0.7-2.9,3.6-6.4,6.5-7.9c3.6-1.8,6.9-1.5,8.4-1.4c5.9,0.6,12.4,4.2,12.1,7
		c-0.2,1.6-2.4,2.5-6.5,4.2c-2.8,1.1-5.4,2.2-8.9,2.3C154.7,144.7,147.6,143.8,146.8,140.4z"/>
	<linearGradient id="SVGID_15_" gradientUnits="userSpaceOnUse" x1="155.4378" y1="138.348" x2="163.599" y2="138.348">
		<stop  offset="0" style="stop-color:#FF543C"/>
		<stop  offset="0.1226" style="stop-color:#FF4B40"/>
		<stop  offset="0.3208" style="stop-color:#FF3349"/>
		<stop  offset="0.5685" style="stop-color:#FF0D59"/>
		<stop  offset="0.6412" style="stop-color:#FF005E"/>
	</linearGradient>
	<path class="st14" d="M156.2,144.6c0.9-0.5,2.4-1.5,3.7-3.3c1.3-1.7,1.7-3.4,1.9-4.2c0.6-2.6,0.3-4.8,0-6.1"/>
	<linearGradient id="SVGID_16_" gradientUnits="userSpaceOnUse" x1="92.9475" y1="141.8428" x2="115.4971" y2="141.8428">
		<stop  offset="0" style="stop-color:#FF543C"/>
		<stop  offset="0.1226" style="stop-color:#FF4B40"/>
		<stop  offset="0.3208" style="stop-color:#FF3349"/>
		<stop  offset="0.5685" style="stop-color:#FF0D59"/>
		<stop  offset="0.6412" style="stop-color:#FF005E"/>
	</linearGradient>
	<path class="st15" d="M114.7,140.9c-1.2,0.8-3.1,1.8-5.6,2.3c-3.5,0.7-6.2,0-8.4-0.5c-1.7-0.4-4.2-1.2-7-2.8"/>
	<linearGradient id="SVGID_17_" gradientUnits="userSpaceOnUse" x1="93.2581" y1="136.1326" x2="115.8149" y2="136.1326">
		<stop  offset="0" style="stop-color:#FF543C"/>
		<stop  offset="0.1226" style="stop-color:#FF4B40"/>
		<stop  offset="0.3208" style="stop-color:#FF3349"/>
		<stop  offset="0.5685" style="stop-color:#FF0D59"/>
		<stop  offset="0.6412" style="stop-color:#FF005E"/>
	</linearGradient>
	<path class="st16" d="M94.2,133.9c0.8-0.6,2.3-1.5,4.2-1.9c3.1-0.6,5.7,0.8,8.4,2.3c2,1.1,5,3.1,7.9,6.5"/>
	<linearGradient id="SVGID_18_" gradientUnits="userSpaceOnUse" x1="101.9942" y1="138.199" x2="106.9816" y2="138.199">
		<stop  offset="0" style="stop-color:#FF543C"/>
		<stop  offset="0.1226" style="stop-color:#FF4B40"/>
		<stop  offset="0.3208" style="stop-color:#FF3349"/>
		<stop  offset="0.5685" style="stop-color:#FF0D59"/>
		<stop  offset="0.6412" style="stop-color:#FF005E"/>
	</linearGradient>
	<path class="st17" d="M104,133c0.3,0.4,2,2.9,1.4,6.1c-0.4,2.3-1.8,3.7-2.3,4.2"/>
	<linearGradient id="SVGID_19_" gradientUnits="userSpaceOnUse" x1="143.6396" y1="131.3899" x2="173.6245" y2="131.3899">
		<stop  offset="0" style="stop-color:#FF543C"/>
		<stop  offset="0.1226" style="stop-color:#FF4B40"/>
		<stop  offset="0.3208" style="stop-color:#FF3349"/>
		<stop  offset="0.5685" style="stop-color:#FF0D59"/>
		<stop  offset="0.6412" style="stop-color:#FF005E"/>
	</linearGradient>
	<path class="st18" d="M145,137.6c0.8-1.4,2.1-3.5,4.2-5.6c1.3-1.3,6.1-5.7,13.5-6.1c4.7-0.2,8.3,1.3,10.3,2.3"/>
	<linearGradient id="SVGID_20_" gradientUnits="userSpaceOnUse" x1="96.9514" y1="131.8595" x2="115.5389" y2="131.8595">
		<stop  offset="0" style="stop-color:#FF543C"/>
		<stop  offset="0.1226" style="stop-color:#FF4B40"/>
		<stop  offset="0.3208" style="stop-color:#FF3349"/>
		<stop  offset="0.5685" style="stop-color:#FF0D59"/>
		<stop  offset="0.6412" style="stop-color:#FF005E"/>
	</linearGradient>
	<path class="st19" d="M97,127.8c2.4,0,10.4,0.2,15.4,6.1c0.6,0.8,1.3,1.7,1.9,2.8"/>
	<linearGradient id="SVGID_21_" gradientUnits="userSpaceOnUse" x1="111.4909" y1="191.4568" x2="116.9211" y2="191.4568">
		<stop  offset="0" style="stop-color:#FF543C"/>
		<stop  offset="0.1226" style="stop-color:#FF4B40"/>
		<stop  offset="0.3208" style="stop-color:#FF3349"/>
		<stop  offset="0.5685" style="stop-color:#FF0D59"/>
		<stop  offset="0.6412" style="stop-color:#FF005E"/>
	</linearGradient>
	<path class="st20" d="M115.6,188.9c-0.9,1.7-1.9,3.4-2.8,5.1"/>
	
		<linearGradient id="SVGID_22_" gradientUnits="userSpaceOnUse" x1="5399.5728" y1="137.1596" x2="5395.8438" y2="137.1596" gradientTransform="matrix(-1 0 0 1 5497 0)">
		<stop  offset="0" style="stop-color:#FF543C"/>
		<stop  offset="0.1226" style="stop-color:#FF4B40"/>
		<stop  offset="0.3208" style="stop-color:#FF3349"/>
		<stop  offset="0.5685" style="stop-color:#FF0D59"/>
		<stop  offset="0.6412" style="stop-color:#FF005E"/>
	</linearGradient>
	<circle class="st21" cx="99.3" cy="137.2" r="1.9"/>
	
		<linearGradient id="SVGID_23_" gradientUnits="userSpaceOnUse" x1="5344.7119" y1="138.1596" x2="5340.9834" y2="138.1596" gradientTransform="matrix(-1 0 0 1 5497 0)">
		<stop  offset="0" style="stop-color:#FF543C"/>
		<stop  offset="0.1226" style="stop-color:#FF4B40"/>
		<stop  offset="0.3208" style="stop-color:#FF3349"/>
		<stop  offset="0.5685" style="stop-color:#FF0D59"/>
		<stop  offset="0.6412" style="stop-color:#FF005E"/>
	</linearGradient>
	<circle class="st22" cx="154.2" cy="138.2" r="1.9"/>
</g>
</svg>
