<?xml version="1.0" encoding="utf-8"?>
<!-- Generator: Adobe Illustrator 22.1.0, SVG Export Plug-In . SVG Version: 6.00 Build 0)  -->
<svg version="1.1" id="Calque_1" xmlns="http://www.w3.org/2000/svg" xmlns:xlink="http://www.w3.org/1999/xlink" x="0px" y="0px"
	 viewBox="0 0 344 325" style="enable-background:new 0 0 344 325;" xml:space="preserve">
<style type="text/css">
	.st0{fill:none;stroke:url(#SVGID_1_);stroke-width:3;stroke-miterlimit:10;}
	.st1{fill:none;stroke:url(#SVGID_2_);stroke-width:3;stroke-miterlimit:10;}
	.st2{fill:none;stroke:url(#SVGID_3_);stroke-width:3;stroke-miterlimit:10;}
	.st3{fill:none;stroke:url(#SVGID_4_);stroke-width:3;stroke-miterlimit:10;}
	.st4{fill:none;stroke:url(#SVGID_5_);stroke-width:3;stroke-miterlimit:10;}
	.st5{fill:none;stroke:url(#SVGID_6_);stroke-width:3;stroke-miterlimit:10;}
	.st6{fill:none;stroke:url(#SVGID_7_);stroke-width:3;stroke-miterlimit:10;}
	.st7{fill:none;stroke:url(#SVGID_8_);stroke-width:3;stroke-miterlimit:10;}
	.st8{fill:none;stroke:url(#SVGID_9_);stroke-width:3;stroke-miterlimit:10;}
	.st9{fill:none;stroke:url(#SVGID_10_);stroke-width:3;stroke-miterlimit:10;}
	.st10{fill:none;stroke:url(#SVGID_11_);stroke-width:3;stroke-miterlimit:10;}
	.st11{fill:none;stroke:url(#SVGID_12_);stroke-width:3;stroke-miterlimit:10;}
	.st12{fill:none;stroke:url(#SVGID_13_);stroke-width:3;stroke-miterlimit:10;}
	.st13{fill:none;stroke:url(#SVGID_14_);stroke-width:3;stroke-miterlimit:10;}
	.st14{fill:none;stroke:url(#SVGID_15_);stroke-width:3;stroke-miterlimit:10;}
	.st15{fill:none;stroke:url(#SVGID_16_);stroke-width:3;stroke-miterlimit:10;}
	.st16{fill:none;stroke:url(#SVGID_17_);stroke-width:3;stroke-miterlimit:10;}
</style>
<g>
	<linearGradient id="SVGID_1_" gradientUnits="userSpaceOnUse" x1="79.5327" y1="148.4132" x2="246.1452" y2="148.4132">
		<stop  offset="0" style="stop-color:#FF543C"/>
		<stop  offset="0.1226" style="stop-color:#FF4B40"/>
		<stop  offset="0.3208" style="stop-color:#FF3349"/>
		<stop  offset="0.5685" style="stop-color:#FF0D59"/>
		<stop  offset="0.6412" style="stop-color:#FF005E"/>
	</linearGradient>
	<path class="st0" d="M94.1,208.3c1.5,4,4.4,10.8,9.3,18.6c2.6,4.2,11.4,17.4,27.8,29.7c10.4,7.8,17.1,12.8,27.8,14.9
		c15.2,3,27.6-2,31.6-3.7c19.5-8.2,28.6-24.8,33.4-33.4c5.4-9.7,7.7-18.5,9.3-24.1c3.1-11.3,2-13.7,5.6-31.6
		c3.4-17.3,4.8-16.9,5.6-26c0.3-3.9,0.4-8.2-1.9-29.7c-1.9-17.8-2.9-26.7-3.7-29.7c-4.5-16-13.1-26.4-20.4-35.3
		c-7.8-9.4-15.6-19-29.7-26c-6-3-16.1-8-29.7-7.4c-21.8,0.9-36,15.4-39,18.6c-5.5,5.9-3.5,6.4-14.9,22.3
		c-10.7,15-12.7,14.9-16.7,22.3c-6.7,12.5-7.1,24.3-7.4,35.3c-0.4,13.4,1.8,12.3,5.6,42.7C89.4,187.9,89,195.1,94.1,208.3z"/>
	<linearGradient id="SVGID_2_" gradientUnits="userSpaceOnUse" x1="103.7174" y1="128.4823" x2="143.8622" y2="128.4823">
		<stop  offset="0" style="stop-color:#FF543C"/>
		<stop  offset="0.1226" style="stop-color:#FF4B40"/>
		<stop  offset="0.3208" style="stop-color:#FF3349"/>
		<stop  offset="0.5685" style="stop-color:#FF0D59"/>
		<stop  offset="0.6412" style="stop-color:#FF005E"/>
	</linearGradient>
	<path class="st1" d="M105.2,130.3c-0.1-2,3.4-3.6,7.4-5.6c3.7-1.8,7.7-3.7,13-3.7c8.4-0.1,17,4.6,16.7,7.4c0,0.4-0.3,1.3-7.4,3.7
		c-7.2,2.5-10.8,3.7-14.9,3.7C113.4,135.9,105.4,133.3,105.2,130.3z"/>
	<linearGradient id="SVGID_3_" gradientUnits="userSpaceOnUse" x1="114.6337" y1="127.1394" x2="133.6232" y2="127.1394">
		<stop  offset="0" style="stop-color:#FF543C"/>
		<stop  offset="0.1226" style="stop-color:#FF4B40"/>
		<stop  offset="0.3208" style="stop-color:#FF3349"/>
		<stop  offset="0.5685" style="stop-color:#FF0D59"/>
		<stop  offset="0.6412" style="stop-color:#FF005E"/>
	</linearGradient>
	<path class="st2" d="M116.4,122.9c-0.1,0.2-1.1,4.4,1.9,7.4c2.8,2.8,6.7,2,7.4,1.9c0.8-0.2,3.9-0.8,5.6-3.7c2-3.5,0.2-7.1,0-7.4"/>
	
		<linearGradient id="SVGID_4_" gradientUnits="userSpaceOnUse" x1="2277.5552" y1="1642.3701" x2="2296.5447" y2="1642.3701" gradientTransform="matrix(0.9563 0.2976 -0.2663 0.8364 -1542.5873 -1927.7902)">
		<stop  offset="0" style="stop-color:#FF543C"/>
		<stop  offset="0.1226" style="stop-color:#FF4B40"/>
		<stop  offset="0.3208" style="stop-color:#FF3349"/>
		<stop  offset="0.5685" style="stop-color:#FF0D59"/>
		<stop  offset="0.6412" style="stop-color:#FF005E"/>
	</linearGradient>
	<path class="st3" d="M200.9,120.7c-0.1,0.1-2.2,3.4-0.2,6.8c1.9,3.2,5.8,3.7,6.6,3.8c0.8,0.1,4,0.5,6.3-1.4c2.8-2.3,2-5.9,2-6.2"/>
	<linearGradient id="SVGID_5_" gradientUnits="userSpaceOnUse" x1="185.5814" y1="112.9048" x2="226.9601" y2="112.9048">
		<stop  offset="0" style="stop-color:#FF543C"/>
		<stop  offset="0.1226" style="stop-color:#FF4B40"/>
		<stop  offset="0.3208" style="stop-color:#FF3349"/>
		<stop  offset="0.5685" style="stop-color:#FF0D59"/>
		<stop  offset="0.6412" style="stop-color:#FF005E"/>
	</linearGradient>
	<path class="st4" d="M186.9,119.2c0.9-1.7,4.9-8.9,13-11.1c7.9-2.2,14.9,1.7,18.6,3.7c3.4,1.9,5.9,4,7.4,5.6"/>
	<linearGradient id="SVGID_6_" gradientUnits="userSpaceOnUse" x1="98.6645" y1="118.773" x2="146.6379" y2="118.773">
		<stop  offset="0" style="stop-color:#FF543C"/>
		<stop  offset="0.1226" style="stop-color:#FF4B40"/>
		<stop  offset="0.3208" style="stop-color:#FF3349"/>
		<stop  offset="0.5685" style="stop-color:#FF0D59"/>
		<stop  offset="0.6412" style="stop-color:#FF005E"/>
	</linearGradient>
	<path class="st5" d="M99.6,124.8c1.7-1.5,4.2-3.5,7.4-5.6c4.5-2.9,7.3-4.7,11.1-5.6c5-1.2,9.1-0.1,16.7,1.9
		c4.8,1.2,8.6,2.7,11.1,3.7"/>
	<linearGradient id="SVGID_7_" gradientUnits="userSpaceOnUse" x1="90.6668" y1="94.42" x2="148.4495" y2="94.42">
		<stop  offset="0" style="stop-color:#FF543C"/>
		<stop  offset="0.1226" style="stop-color:#FF4B40"/>
		<stop  offset="0.3208" style="stop-color:#FF3349"/>
		<stop  offset="0.5685" style="stop-color:#FF0D59"/>
		<stop  offset="0.6412" style="stop-color:#FF005E"/>
	</linearGradient>
	<path class="st6" d="M92.2,102.5c-0.8-1.9,7.5-7.2,11.1-9.3c6.5-3.7,11.8-5.2,13-5.6c4.7-1.3,8.1-1.5,14.9-1.9
		c12.6-0.7,14.3,1,14.9,1.9c1.2,1.7,1.2,4.3,0,5.6c-1.3,1.3-3.6,0.5-7.4,0c-3.7-0.5-6.8-0.3-13,0c-6.5,0.4-9.8,0.5-13,1.9
		c-6,2.5-6.7,5.8-13,7.4C97,103.2,92.8,103.7,92.2,102.5z"/>
	<linearGradient id="SVGID_8_" gradientUnits="userSpaceOnUse" x1="185.3581" y1="95.0054" x2="236.7419" y2="95.0054">
		<stop  offset="0" style="stop-color:#FF543C"/>
		<stop  offset="0.1226" style="stop-color:#FF4B40"/>
		<stop  offset="0.3208" style="stop-color:#FF3349"/>
		<stop  offset="0.5685" style="stop-color:#FF0D59"/>
		<stop  offset="0.6412" style="stop-color:#FF005E"/>
	</linearGradient>
	<path class="st7" d="M186.9,93.2c-0.5-1.4,3-4.2,5.6-5.6c1.8-1,5.3-2.4,14.9-1.9c6.6,0.4,9.9,0.6,13,1.9
		c10.8,4.4,15.5,16.2,14.9,16.7c-0.4,0.3-2.9-3.7-9.3-7.4c-1.7-1-4.9-2.8-9.3-3.7c-3.5-0.7-5.8-0.4-11.1,0
		C193.5,94.2,187.4,94.6,186.9,93.2z"/>
	<linearGradient id="SVGID_9_" gradientUnits="userSpaceOnUse" x1="137.1363" y1="167.5701" x2="152.0189" y2="167.5701">
		<stop  offset="0" style="stop-color:#FF543C"/>
		<stop  offset="0.1226" style="stop-color:#FF4B40"/>
		<stop  offset="0.3208" style="stop-color:#FF3349"/>
		<stop  offset="0.5685" style="stop-color:#FF0D59"/>
		<stop  offset="0.6412" style="stop-color:#FF005E"/>
	</linearGradient>
	<path class="st8" d="M144.2,156.3c-0.5,0.3-5.7,3.9-5.6,9.3c0.1,3.4,2.2,5.7,3.7,7.4c3.3,3.7,7.3,5,9.3,5.6"/>
	<linearGradient id="SVGID_10_" gradientUnits="userSpaceOnUse" x1="148.257" y1="168.0528" x2="164.3359" y2="168.0528">
		<stop  offset="0" style="stop-color:#FF543C"/>
		<stop  offset="0.1226" style="stop-color:#FF4B40"/>
		<stop  offset="0.3208" style="stop-color:#FF3349"/>
		<stop  offset="0.5685" style="stop-color:#FF0D59"/>
		<stop  offset="0.6412" style="stop-color:#FF005E"/>
	</linearGradient>
	<path class="st9" d="M162.8,167.5c0.3-1.4-0.7-3-1.9-3.7c-1.9-1.3-4.3-0.5-5.6,0c-0.3,0.1-6,2.2-5.6,5.6c0.2,1.8,1.9,3.6,3.7,3.7
		c1,0.1,1.4-0.4,3.7-1.9C161.2,168.7,162.5,168.8,162.8,167.5z"/>
	<linearGradient id="SVGID_11_" gradientUnits="userSpaceOnUse" x1="170.8949" y1="165.836" x2="187.0866" y2="165.836">
		<stop  offset="0" style="stop-color:#FF543C"/>
		<stop  offset="0.1226" style="stop-color:#FF4B40"/>
		<stop  offset="0.3208" style="stop-color:#FF3349"/>
		<stop  offset="0.5685" style="stop-color:#FF0D59"/>
		<stop  offset="0.6412" style="stop-color:#FF005E"/>
	</linearGradient>
	<path class="st10" d="M172.1,169.3c2.1-2.6,4.1-4.4,5.6-5.6c2-1.6,2.9-1.9,3.7-1.9c2.4,0.2,3.6,3.4,3.7,3.7c0.3,0.9,1,2.7,0,3.7
		c-0.8,0.8-2.4,0.4-3.7,0c-1.7-0.5-3-1.3-3.7-1.9"/>
	<linearGradient id="SVGID_12_" gradientUnits="userSpaceOnUse" x1="181.1463" y1="164.2065" x2="194.9677" y2="164.2065">
		<stop  offset="0" style="stop-color:#FF543C"/>
		<stop  offset="0.1226" style="stop-color:#FF4B40"/>
		<stop  offset="0.3208" style="stop-color:#FF3349"/>
		<stop  offset="0.5685" style="stop-color:#FF0D59"/>
		<stop  offset="0.6412" style="stop-color:#FF005E"/>
	</linearGradient>
	<path class="st11" d="M181.3,176.8c1.3-0.2,3.4-0.6,5.6-1.9c1.4-0.8,4.1-2.3,5.6-5.6c1.4-3,1.3-6.6,0-9.3c-0.9-1.9-1.8-2.2-3.7-5.6
		c-0.9-1.5-1.5-2.9-1.9-3.7"/>
	<linearGradient id="SVGID_13_" gradientUnits="userSpaceOnUse" x1="136.9026" y1="204.6684" x2="195.8786" y2="204.6684">
		<stop  offset="0" style="stop-color:#FF543C"/>
		<stop  offset="0.1226" style="stop-color:#FF4B40"/>
		<stop  offset="0.3208" style="stop-color:#FF3349"/>
		<stop  offset="0.5685" style="stop-color:#FF0D59"/>
		<stop  offset="0.6412" style="stop-color:#FF005E"/>
	</linearGradient>
	<path class="st12" d="M140.5,210.2c2.5-3.8,4.7-4.4,11.1-9.3c5.6-4.2,7-6,9.3-5.6c2.8,0.6,3.1,3.6,5.6,3.7c3.1,0.1,3.7-4.6,7.4-5.6
		c0.8-0.2,2.9-0.5,13,7.4c7.8,6.1,7.6,7.2,7.4,7.4c-0.4,0.7-2,0.3-7.4,0c-3.6-0.2-6.3-0.3-9.3,0c-4.4,0.4-4.9,1.3-9.3,1.9
		c-4.2,0.5-6,0-9.3,0c-7.6,0.1-14.4,3.5-14.9,3.7c-3,1.3-4.9,2.5-5.6,1.9C137.6,214.7,140.3,210.5,140.5,210.2z"/>
	<linearGradient id="SVGID_14_" gradientUnits="userSpaceOnUse" x1="137.8566" y1="214.5427" x2="195.6711" y2="214.5427">
		<stop  offset="0" style="stop-color:#FF543C"/>
		<stop  offset="0.1226" style="stop-color:#FF4B40"/>
		<stop  offset="0.3208" style="stop-color:#FF3349"/>
		<stop  offset="0.5685" style="stop-color:#FF0D59"/>
		<stop  offset="0.6412" style="stop-color:#FF005E"/>
	</linearGradient>
	<path class="st13" d="M138.6,215.7c1.9,1.2,5.1,2.8,9.3,3.7c8.9,1.8,12.1-2.1,24.1-1.9c7.2,0.1,9,1.6,13,0c4.7-1.9,7.6-6,9.3-9.3"
		/>
	<linearGradient id="SVGID_15_" gradientUnits="userSpaceOnUse" x1="2.8355" y1="160.0049" x2="155.529" y2="160.0049">
		<stop  offset="0" style="stop-color:#FF543C"/>
		<stop  offset="0.1226" style="stop-color:#FF4B40"/>
		<stop  offset="0.3208" style="stop-color:#FF3349"/>
		<stop  offset="0.5685" style="stop-color:#FF0D59"/>
		<stop  offset="0.6412" style="stop-color:#FF005E"/>
	</linearGradient>
	<path class="st14" d="M155.3,7.8c-40.6-4.9-72.3,36-87.1,68.8C50,117.2,12.2,169.2,5.2,213.5c-3.8,24.1,5.9,66.2,23.3,82.9
		c43.3,41.6,80.9-5,95.4-45.3"/>
	<linearGradient id="SVGID_16_" gradientUnits="userSpaceOnUse" x1="155.2743" y1="160.8934" x2="337.7147" y2="160.8934">
		<stop  offset="0" style="stop-color:#FF543C"/>
		<stop  offset="0.1226" style="stop-color:#FF4B40"/>
		<stop  offset="0.3208" style="stop-color:#FF3349"/>
		<stop  offset="0.5685" style="stop-color:#FF0D59"/>
		<stop  offset="0.6412" style="stop-color:#FF005E"/>
	</linearGradient>
	<path class="st15" d="M155.3,7.8c40.7-2,87.4,32.3,104,66.8c16.9,35.3,19.8,74.5,44.6,104c27.1,32.3,45,63,21.3,106
		c-26.5,48.2-127.1,35.7-119.7-26.2"/>
	<linearGradient id="SVGID_17_" gradientUnits="userSpaceOnUse" x1="187.2603" y1="126.5338" x2="227.4197" y2="126.5338">
		<stop  offset="0" style="stop-color:#FF543C"/>
		<stop  offset="0.1226" style="stop-color:#FF4B40"/>
		<stop  offset="0.3208" style="stop-color:#FF3349"/>
		<stop  offset="0.5685" style="stop-color:#FF0D59"/>
		<stop  offset="0.6412" style="stop-color:#FF005E"/>
	</linearGradient>
	<path class="st16" d="M188.8,126.6c-0.3-2.1,5.1-4.6,9.3-5.6c4-0.9,7.4-0.3,9.3,0c4.9,0.9,5.2,2.3,11.1,3.7c5,1.2,7.2,0.9,7.4,1.9
		c0.3,1.5-4.3,4.5-9.3,5.6c-2.1,0.5-4.7,0.7-16.7-1.9C189.8,128.2,188.9,127.4,188.8,126.6z"/>
</g>
</svg>
