<?xml version="1.0" encoding="utf-8"?>
<!-- Generator: Adobe Illustrator 22.1.0, SVG Export Plug-In . SVG Version: 6.00 Build 0)  -->
<svg version="1.1" id="Calque_1" xmlns="http://www.w3.org/2000/svg" xmlns:xlink="http://www.w3.org/1999/xlink" x="0px" y="0px"
	 viewBox="0 0 180 179" style="enable-background:new 0 0 180 179;" xml:space="preserve">
<style type="text/css">
	.st0{fill:url(#SVGID_1_);stroke:url(#SVGID_2_);stroke-width:2;stroke-miterlimit:10;}
	.st1{fill:url(#SVGID_3_);stroke:url(#SVGID_4_);stroke-width:2;stroke-miterlimit:10;}
	.st2{fill:url(#SVGID_5_);stroke:url(#SVGID_6_);stroke-width:2;stroke-miterlimit:10;}
	.st3{fill:url(#SVGID_7_);stroke:url(#SVGID_8_);stroke-width:2;stroke-miterlimit:10;}
	.st4{fill:url(#SVGID_9_);stroke:url(#SVGID_10_);stroke-width:2;stroke-miterlimit:10;}
	.st5{fill:url(#SVGID_11_);stroke:url(#SVGID_12_);stroke-width:2;stroke-miterlimit:10;}
	.st6{fill:url(#SVGID_13_);stroke:url(#SVGID_14_);stroke-width:2;stroke-miterlimit:10;}
	.st7{fill:url(#SVGID_15_);stroke:url(#SVGID_16_);stroke-width:2;stroke-miterlimit:10;}
</style>
<g>
	<linearGradient id="SVGID_1_" gradientUnits="userSpaceOnUse" x1="100.8103" y1="69.3839" x2="156.1005" y2="69.3839">
		<stop  offset="0" style="stop-color:#FF543C"/>
		<stop  offset="0.1226" style="stop-color:#FF4B40"/>
		<stop  offset="0.3208" style="stop-color:#FF3349"/>
		<stop  offset="0.5685" style="stop-color:#FF0D59"/>
		<stop  offset="0.6412" style="stop-color:#FF005E"/>
	</linearGradient>
	<linearGradient id="SVGID_2_" gradientUnits="userSpaceOnUse" x1="99.8103" y1="69.3839" x2="157.1005" y2="69.3839">
		<stop  offset="0" style="stop-color:#FF543C"/>
		<stop  offset="0.1226" style="stop-color:#FF4B40"/>
		<stop  offset="0.3208" style="stop-color:#FF3349"/>
		<stop  offset="0.5685" style="stop-color:#FF0D59"/>
		<stop  offset="0.6412" style="stop-color:#FF005E"/>
	</linearGradient>
	<path class="st0" d="M103.4,80.8c0.3,0,0.6,0,0.9-0.2l50-17.7c1.4-0.5,2.1-2,1.6-3.3c-0.5-1.4-2-2.1-3.3-1.6l-50,17.7
		c-1.4,0.5-2.1,2-1.6,3.3C101.3,80.2,102.4,80.8,103.4,80.8z"/>
	<linearGradient id="SVGID_3_" gradientUnits="userSpaceOnUse" x1="54.1982" y1="35.6873" x2="67.7021" y2="35.6873">
		<stop  offset="0" style="stop-color:#FF543C"/>
		<stop  offset="0.1226" style="stop-color:#FF4B40"/>
		<stop  offset="0.3208" style="stop-color:#FF3349"/>
		<stop  offset="0.5685" style="stop-color:#FF0D59"/>
		<stop  offset="0.6412" style="stop-color:#FF005E"/>
	</linearGradient>
	<linearGradient id="SVGID_4_" gradientUnits="userSpaceOnUse" x1="53.1982" y1="35.6873" x2="68.7021" y2="35.6873">
		<stop  offset="0" style="stop-color:#FF543C"/>
		<stop  offset="0.1226" style="stop-color:#FF4B40"/>
		<stop  offset="0.3208" style="stop-color:#FF3349"/>
		<stop  offset="0.5685" style="stop-color:#FF0D59"/>
		<stop  offset="0.6412" style="stop-color:#FF005E"/>
	</linearGradient>
	<path class="st1" d="M67.6,33.4c-0.5-1.4-2-2.1-3.3-1.6l-8.3,2.9c-1.4,0.5-2.1,2-1.6,3.3c0.4,1.1,1.4,1.8,2.5,1.8
		c0.3,0,0.6,0,0.9-0.2l8.3-2.9C67.3,36.2,68,34.7,67.6,33.4z"/>
	<linearGradient id="SVGID_5_" gradientUnits="userSpaceOnUse" x1="58.3716" y1="54.85" x2="63.6158" y2="54.85">
		<stop  offset="0" style="stop-color:#FF543C"/>
		<stop  offset="0.1226" style="stop-color:#FF4B40"/>
		<stop  offset="0.3208" style="stop-color:#FF3349"/>
		<stop  offset="0.5685" style="stop-color:#FF0D59"/>
		<stop  offset="0.6412" style="stop-color:#FF005E"/>
	</linearGradient>
	<linearGradient id="SVGID_6_" gradientUnits="userSpaceOnUse" x1="57.3716" y1="54.85" x2="64.6158" y2="54.85">
		<stop  offset="0" style="stop-color:#FF543C"/>
		<stop  offset="0.1226" style="stop-color:#FF4B40"/>
		<stop  offset="0.3208" style="stop-color:#FF3349"/>
		<stop  offset="0.5685" style="stop-color:#FF0D59"/>
		<stop  offset="0.6412" style="stop-color:#FF005E"/>
	</linearGradient>
	<path class="st2" d="M63.4,53.8c-0.1-0.2-0.2-0.3-0.3-0.4c-0.1-0.1-0.2-0.3-0.3-0.4c-0.7-0.7-1.9-1-2.9-0.6
		c-0.3,0.1-0.6,0.3-0.8,0.6c-0.5,0.5-0.8,1.2-0.8,1.9c0,0.3,0.1,0.7,0.2,1c0.1,0.3,0.3,0.6,0.6,0.8c0.2,0.3,0.5,0.4,0.8,0.6
		c0.3,0.1,0.7,0.2,1,0.2c0.3,0,0.7-0.1,1-0.2c0.3-0.1,0.6-0.3,0.8-0.6c0.5-0.5,0.8-1.2,0.8-1.8c0-0.2,0-0.3-0.1-0.5
		C63.5,54.2,63.5,54,63.4,53.8z"/>
	<linearGradient id="SVGID_7_" gradientUnits="userSpaceOnUse" x1="49.431" y1="77.1906" x2="54.6752" y2="77.1906">
		<stop  offset="0" style="stop-color:#FF543C"/>
		<stop  offset="0.1226" style="stop-color:#FF4B40"/>
		<stop  offset="0.3208" style="stop-color:#FF3349"/>
		<stop  offset="0.5685" style="stop-color:#FF0D59"/>
		<stop  offset="0.6412" style="stop-color:#FF005E"/>
	</linearGradient>
	<linearGradient id="SVGID_8_" gradientUnits="userSpaceOnUse" x1="48.431" y1="77.1906" x2="55.6752" y2="77.1906">
		<stop  offset="0" style="stop-color:#FF543C"/>
		<stop  offset="0.1226" style="stop-color:#FF4B40"/>
		<stop  offset="0.3208" style="stop-color:#FF3349"/>
		<stop  offset="0.5685" style="stop-color:#FF0D59"/>
		<stop  offset="0.6412" style="stop-color:#FF005E"/>
	</linearGradient>
	<path class="st3" d="M53.9,75.3c-0.2-0.2-0.5-0.4-0.9-0.6c-0.9-0.4-2.1-0.2-2.9,0.6c-0.2,0.2-0.4,0.5-0.6,0.8
		c-0.1,0.3-0.2,0.7-0.2,1c0,0.7,0.3,1.4,0.8,1.8c0.5,0.5,1.2,0.8,1.9,0.8c0.3,0,0.7-0.1,1-0.2c0.3-0.1,0.6-0.3,0.9-0.6
		c0.1-0.1,0.2-0.2,0.3-0.4c0.1-0.1,0.2-0.3,0.3-0.4c0.1-0.2,0.1-0.3,0.1-0.5c0.1-0.2,0.1-0.3,0.1-0.5c0-0.4-0.1-0.7-0.2-1
		C54.3,75.9,54.2,75.6,53.9,75.3z"/>
	<linearGradient id="SVGID_9_" gradientUnits="userSpaceOnUse" x1="2" y1="89.3048" x2="178.5885" y2="89.3048">
		<stop  offset="0" style="stop-color:#FF543C"/>
		<stop  offset="0.1226" style="stop-color:#FF4B40"/>
		<stop  offset="0.3208" style="stop-color:#FF3349"/>
		<stop  offset="0.5685" style="stop-color:#FF0D59"/>
		<stop  offset="0.6412" style="stop-color:#FF005E"/>
	</linearGradient>
	<linearGradient id="SVGID_10_" gradientUnits="userSpaceOnUse" x1="1" y1="89.3048" x2="179.5885" y2="89.3048">
		<stop  offset="0" style="stop-color:#FF543C"/>
		<stop  offset="0.1226" style="stop-color:#FF4B40"/>
		<stop  offset="0.3208" style="stop-color:#FF3349"/>
		<stop  offset="0.5685" style="stop-color:#FF0D59"/>
		<stop  offset="0.6412" style="stop-color:#FF005E"/>
	</linearGradient>
	<path class="st4" d="M166,134.7c11.1-18.5,15.4-41,10.8-63.2c0,0,0,0,0,0c0,0,0,0,0,0c-0.8-3.9-1.8-7.8-3.2-11.6
		c-7.9-22.2-23.9-40.1-45.2-50.3C107.1-0.5,83.2-1.8,60.9,6.1C38.7,13.9,20.9,30,10.7,51.2C0.5,72.5-0.8,96.5,7.1,118.7
		c12.8,36.2,46.9,58.9,83.3,58.9c9.7,0,19.6-1.6,29.3-5c20-7.1,35.9-20.6,46.1-37.5C165.9,135,165.9,134.8,166,134.7z M118,167.6
		c-16.2,5.7-33,6.1-48.5,2.1l21.3-7.5c1.4-0.5,2.1-2,1.6-3.3c-0.5-1.4-2-2.1-3.3-1.6L61.4,167c-0.1,0-0.1,0.1-0.1,0.1
		c-5.6-2.1-11-4.8-16-8.1l72.3-25.5c1.4-0.5,2.1-2,1.6-3.3c-0.5-1.4-2-2.1-3.3-1.6L40,155.3c-8.7-6.7-16.2-15.1-21.8-25l80.8-28.5
		c1.4-0.5,2.1-2,1.6-3.3c-0.5-1.4-2-2.1-3.3-1.6l-81.5,28.8c-1.3-2.8-2.6-5.7-3.6-8.6c-0.4-1.1-0.7-2.2-1.1-3.3l48-16.9
		c1.4-0.5,2.1-2,1.6-3.3c-0.5-1.4-2-2.1-3.3-1.6L9.6,108.6c-1-4.3-1.7-8.6-2-12.9l30.7-10.8c1.4-0.5,2.1-2,1.6-3.3
		c-0.5-1.4-2-2.1-3.3-1.6L7.3,90.2c-0.1-12.4,2.5-24.5,7.6-35.5l23.4-8.3c1.4-0.5,2.1-2,1.6-3.3c-0.5-1.4-2-2.1-3.3-1.6l-18.2,6.4
		C28,31.3,43.2,17.9,62.7,11c9-3.2,18.4-4.8,27.7-4.8c10.2,0,20.3,1.9,30,5.7L91,22.3c-1.4,0.5-2.1,2-1.6,3.3
		c0.4,1.1,1.4,1.8,2.5,1.8c0.3,0,0.6,0,0.9-0.2L127.3,15c5,2.5,9.6,5.4,13.9,8.7l-65,23c-1.4,0.5-2.1,2-1.6,3.3
		c0.4,1.1,1.4,1.8,2.5,1.8c0.3,0,0.6,0,0.9-0.2l68-24c3.5,3.1,6.7,6.6,9.6,10.2l-40.3,14.2c-1.4,0.5-2.1,2-1.6,3.3
		c0.4,1.1,1.4,1.8,2.5,1.8c0.3,0,0.6,0,0.9-0.2l41.8-14.8c4.1,5.9,7.4,12.4,9.9,19.4c1.1,3,1.9,6,2.6,9l-40.3,14.2
		c-1.4,0.5-2.1,2-1.6,3.3c0.4,1.1,1.4,1.8,2.5,1.8c0.3,0,0.6,0,0.9-0.2l39.6-14c0.7,4.4,1.1,8.8,1.1,13.2L64.5,127.5
		c-1.4,0.5-2.1,2-1.6,3.3c0.4,1.1,1.4,1.8,2.5,1.8c0.3,0,0.6,0,0.9-0.2l106.9-37.7c-0.3,4.8-1.1,9.6-2.2,14.3l-30,10.6
		c-1.4,0.5-2.1,2-1.6,3.3c0.4,1.1,1.4,1.8,2.5,1.8c0.3,0,0.6,0,0.9-0.2l26.4-9.3c-1.9,5.7-4.4,11.2-7.4,16.4l-31.2,11
		c-1.4,0.5-2.1,2-1.6,3.3c0.4,1.1,1.4,1.8,2.5,1.8c0.3,0,0.6,0,0.9-0.2l24.7-8.7C147.5,151.7,134.2,161.9,118,167.6z"/>
	<linearGradient id="SVGID_11_" gradientUnits="userSpaceOnUse" x1="66.2398" y1="68.0629" x2="89.5293" y2="68.0629">
		<stop  offset="0" style="stop-color:#FF543C"/>
		<stop  offset="0.1226" style="stop-color:#FF4B40"/>
		<stop  offset="0.3208" style="stop-color:#FF3349"/>
		<stop  offset="0.5685" style="stop-color:#FF0D59"/>
		<stop  offset="0.6412" style="stop-color:#FF005E"/>
	</linearGradient>
	<linearGradient id="SVGID_12_" gradientUnits="userSpaceOnUse" x1="65.2398" y1="68.0629" x2="90.5293" y2="68.0629">
		<stop  offset="0" style="stop-color:#FF543C"/>
		<stop  offset="0.1226" style="stop-color:#FF4B40"/>
		<stop  offset="0.3208" style="stop-color:#FF3349"/>
		<stop  offset="0.5685" style="stop-color:#FF0D59"/>
		<stop  offset="0.6412" style="stop-color:#FF005E"/>
	</linearGradient>
	<path class="st5" d="M86,62.4l-18,6.4c-1.4,0.5-2.1,2-1.6,3.3c0.4,1.1,1.4,1.8,2.5,1.8c0.3,0,0.6,0,0.9-0.2l18-6.4
		c1.4-0.5,2.1-2,1.6-3.3C88.9,62.6,87.4,61.9,86,62.4z"/>
	<linearGradient id="SVGID_13_" gradientUnits="userSpaceOnUse" x1="107.1704" y1="152.683" x2="112.4147" y2="152.683">
		<stop  offset="0" style="stop-color:#FF543C"/>
		<stop  offset="0.1226" style="stop-color:#FF4B40"/>
		<stop  offset="0.3208" style="stop-color:#FF3349"/>
		<stop  offset="0.5685" style="stop-color:#FF0D59"/>
		<stop  offset="0.6412" style="stop-color:#FF005E"/>
	</linearGradient>
	<linearGradient id="SVGID_14_" gradientUnits="userSpaceOnUse" x1="106.1704" y1="152.683" x2="113.4147" y2="152.683">
		<stop  offset="0" style="stop-color:#FF543C"/>
		<stop  offset="0.1226" style="stop-color:#FF4B40"/>
		<stop  offset="0.3208" style="stop-color:#FF3349"/>
		<stop  offset="0.5685" style="stop-color:#FF0D59"/>
		<stop  offset="0.6412" style="stop-color:#FF005E"/>
	</linearGradient>
	<path class="st6" d="M109.3,150.1c-0.2,0-0.3,0.1-0.5,0.1c-0.2,0.1-0.3,0.2-0.4,0.3c-0.2,0.1-0.3,0.2-0.4,0.3
		c-0.5,0.5-0.8,1.2-0.8,1.9c0,0.7,0.3,1.4,0.8,1.9c0.1,0.1,0.3,0.2,0.4,0.3c0.1,0.1,0.3,0.2,0.4,0.2c0.2,0.1,0.3,0.1,0.5,0.2
		c0.2,0,0.3,0.1,0.5,0.1c0.7,0,1.4-0.3,1.9-0.8c0.5-0.5,0.8-1.2,0.8-1.9c0-0.7-0.3-1.4-0.8-1.9C111.1,150.2,110.1,149.9,109.3,150.1
		z"/>
	<linearGradient id="SVGID_15_" gradientUnits="userSpaceOnUse" x1="35.8702" y1="137.59" x2="51.9475" y2="137.59">
		<stop  offset="0" style="stop-color:#FF543C"/>
		<stop  offset="0.1226" style="stop-color:#FF4B40"/>
		<stop  offset="0.3208" style="stop-color:#FF3349"/>
		<stop  offset="0.5685" style="stop-color:#FF0D59"/>
		<stop  offset="0.6412" style="stop-color:#FF005E"/>
	</linearGradient>
	<linearGradient id="SVGID_16_" gradientUnits="userSpaceOnUse" x1="34.8702" y1="137.59" x2="52.9475" y2="137.59">
		<stop  offset="0" style="stop-color:#FF543C"/>
		<stop  offset="0.1226" style="stop-color:#FF4B40"/>
		<stop  offset="0.3208" style="stop-color:#FF3349"/>
		<stop  offset="0.5685" style="stop-color:#FF0D59"/>
		<stop  offset="0.6412" style="stop-color:#FF005E"/>
	</linearGradient>
	<path class="st7" d="M48.5,133.2L37.6,137c-1.4,0.5-2.1,2-1.6,3.3c0.4,1.1,1.4,1.8,2.5,1.8c0.3,0,0.6,0,0.9-0.2l10.8-3.8
		c1.4-0.5,2.1-2,1.6-3.3C51.3,133.4,49.8,132.7,48.5,133.2z"/>
</g>
</svg>
