<?xml version="1.0" encoding="utf-8"?>
<!-- Generator: Adobe Illustrator 22.1.0, SVG Export Plug-In . SVG Version: 6.00 Build 0)  -->
<svg version="1.1" id="Calque_1" xmlns="http://www.w3.org/2000/svg" xmlns:xlink="http://www.w3.org/1999/xlink" x="0px" y="0px"
	 viewBox="0 0 180 128" style="enable-background:new 0 0 180 128;" xml:space="preserve">
<style type="text/css">
	.st0{fill:url(#SVGID_1_);stroke:url(#SVGID_2_);stroke-miterlimit:10;}
</style>
<linearGradient id="SVGID_1_" gradientUnits="userSpaceOnUse" x1="-1.818989e-12" y1="63.7668" x2="180" y2="63.7668">
	<stop  offset="0" style="stop-color:#FF543C"/>
	<stop  offset="0.1226" style="stop-color:#FF4B40"/>
	<stop  offset="0.3208" style="stop-color:#FF3349"/>
	<stop  offset="0.5685" style="stop-color:#FF0D59"/>
	<stop  offset="0.6412" style="stop-color:#FF005E"/>
</linearGradient>
<linearGradient id="SVGID_2_" gradientUnits="userSpaceOnUse" x1="-0.5" y1="63.7668" x2="180.5" y2="63.7668">
	<stop  offset="0" style="stop-color:#FF543C"/>
	<stop  offset="0.1226" style="stop-color:#FF4B40"/>
	<stop  offset="0.3208" style="stop-color:#FF3349"/>
	<stop  offset="0.5685" style="stop-color:#FF0D59"/>
	<stop  offset="0.6412" style="stop-color:#FF005E"/>
</linearGradient>
<path class="st0" d="M178.4,23.3c-5.5-12-23.3-15.8-50.1-10.6c-4.8-3.6-10.2-6.6-16-8.7C96.3-1.9,79-1.3,63.5,5.8
	c-21.3,9.8-34.7,29.9-36.9,51.7c0,0.1,0,0.2,0,0.2c-0.1,0.6-0.1,1.2-0.2,1.7c-0.1,0.1-0.3,0.1-0.4,0.2C4.5,76.7-3.9,92.1,1.7,104.2
	c4.2,9.1,14.8,12.9,28.8,12.9c6.5,0,13.8-0.8,21.4-2.3c11.2,8.4,24.6,12.7,38.2,12.7c9,0,18.1-1.9,26.5-5.8
	c21.3-9.7,35.4-30.2,37.1-53.5c2.8-2.2,5.4-4.4,7.8-6.6C177.3,47.1,183.2,33.8,178.4,23.3z M65.4,10C95-3.5,130.2,9.6,143.7,39.2
	c1.6,3.4,2.8,7,3.7,10.7C137,58.9,120.7,70,97.7,80.5c-23,10.5-42,15.7-55.7,17.6c-0.3-0.5-0.7-1-1-1.5l10.5-4.8
	c1.2-0.5,1.7-1.9,1.1-3.1c-0.5-1.2-1.9-1.7-3.1-1.1l-11,5c-0.8-1.4-1.5-2.8-2.2-4.3c-0.4-0.9-0.8-1.8-1.2-2.8l10.4-4.8
	c1.2-0.5,1.7-1.9,1.1-3.1c-0.5-1.2-1.9-1.7-3.1-1.1l-10,4.6c-0.9-2.9-1.6-5.8-2-8.7l12.9-5.9c1.2-0.5,1.7-1.9,1.1-3.1
	c-0.5-1.2-1.9-1.7-3.1-1.1l-11.5,5.3c-0.2-2.8-0.2-5.6,0.1-8.4L44,53.3c1.2-0.5,1.7-1.9,1.1-3.1C44.6,49,43.2,48.5,42,49l-10.2,4.7
	c0.7-3.9,1.8-7.7,3.2-11.4c0,0,0.1,0,0.1,0l9.5-4.3c1.2-0.5,1.7-1.9,1.1-3.1c-0.5-1.2-1.9-1.7-3.1-1.1l-4.7,2.2
	C43.8,24.9,53.2,15.6,65.4,10z M151.3,46.3c-0.9-3.1-2-6.2-3.3-9.1c-1.4-3-2.9-5.8-4.7-8.5c12.5-1.2,18,0.9,18.6,2.1
	C162.8,32.8,159.4,38.6,151.3,46.3z M30,85.3C30,85.3,30,85.3,30,85.3C30,85.4,30.1,85.4,30,85.3c0.6,1.7,1.3,3.4,2,5
	c1.3,2.9,2.9,5.8,4.7,8.5c-11.2,1.1-17.7-0.2-18.6-2.1c-0.6-1.2,1.4-6.7,10.5-15.5C29.1,82.6,29.5,83.9,30,85.3z M114.6,117.5
	c-9.6,4.4-20.1,6.1-30.2,5.1l2.2-1c1.2-0.5,1.7-1.9,1.1-3.1c-0.5-1.2-1.9-1.7-3.1-1.1l-7.9,3.6c-0.1,0.1-0.2,0.2-0.4,0.3
	c-2.5-0.6-5-1.4-7.4-2.3l4-1.8c1.2-0.5,1.7-1.9,1.1-3.1c-0.5-1.2-1.9-1.7-3.1-1.1l-7.5,3.4c-0.1,0-0.1,0.1-0.2,0.1
	c-1.8-0.9-3.5-1.9-5.2-3c15.2-3.6,31.7-9.4,47.2-16.5c16-7.3,31.1-16.1,43.3-25C145.7,91.9,133,109.1,114.6,117.5z M158.3,58.2
	c-13.1,12-33.1,24.6-55,34.6c-40.8,18.7-88.8,28.4-97.4,9.5c-4.3-9.3,3-22.4,20.4-36.9c0.1,3.5,0.5,7.1,1.2,10.6c0,0-0.1,0-0.1,0.1
	c-5,4.6-16.4,16-13.4,22.5c1.6,3.5,7.2,5.2,15.7,5.2c3.3,0,7.1-0.3,11.3-0.8c0,0,0,0,0,0c0.1,0,0.1,0,0.2,0
	c15.5-2.1,36.2-8.1,58.5-18.3c22.1-10.1,40-21.8,51.8-32.1c0,0,0,0,0.1,0c11.4-10,16.9-18.8,14.7-23.7c-2.9-6.4-18.2-5.5-26-4.6
	c-2.2-2.8-4.6-5.4-7.2-7.8c22.4-3.7,36.9-0.7,41.2,8.6C179,36,168.2,49.1,158.3,58.2z"/>
</svg>
