<?xml version="1.0" encoding="utf-8"?>
<!-- Generator: Adobe Illustrator 22.1.0, SVG Export Plug-In . SVG Version: 6.00 Build 0)  -->
<svg version="1.1" id="Calque_1" xmlns="http://www.w3.org/2000/svg" xmlns:xlink="http://www.w3.org/1999/xlink" x="0px" y="0px"
	 viewBox="0 0 177 178" style="enable-background:new 0 0 177 178;" xml:space="preserve">
<style type="text/css">
	.st0{fill:url(#SVGID_1_);}
	.st1{fill:url(#SVGID_2_);stroke:url(#SVGID_3_);stroke-miterlimit:10;}
	.st2{fill:url(#SVGID_4_);stroke:url(#SVGID_5_);stroke-miterlimit:10;}
	.st3{fill:url(#SVGID_6_);stroke:url(#SVGID_7_);stroke-miterlimit:10;}
	.st4{fill:url(#SVGID_8_);stroke:url(#SVGID_9_);stroke-miterlimit:10;}
	.st5{fill:url(#SVGID_10_);stroke:url(#SVGID_11_);stroke-miterlimit:10;}
</style>
<g>
	<linearGradient id="SVGID_1_" gradientUnits="userSpaceOnUse" x1="0.4266" y1="89.2932" x2="177" y2="89.2932">
		<stop  offset="0" style="stop-color:#FF543C"/>
		<stop  offset="0.1226" style="stop-color:#FF4B40"/>
		<stop  offset="0.3208" style="stop-color:#FF3349"/>
		<stop  offset="0.5685" style="stop-color:#FF0D59"/>
		<stop  offset="0.6412" style="stop-color:#FF005E"/>
	</linearGradient>
	<linearGradient id="SVGID_2_" gradientUnits="userSpaceOnUse" x1="-7.339716e-02" y1="89.2932" x2="177.5" y2="89.2932">
		<stop  offset="0" style="stop-color:#FF543C"/>
		<stop  offset="0.1226" style="stop-color:#FF4B40"/>
		<stop  offset="0.3208" style="stop-color:#FF3349"/>
		<stop  offset="0.5685" style="stop-color:#FF0D59"/>
		<stop  offset="0.6412" style="stop-color:#FF005E"/>
	</linearGradient>
	<path style="fill:url(#SVGID_1_);stroke:url(#SVGID_2_);stroke-miterlimit:10;" d="M176.9,84.7C176.9,84.7,176.9,84.7,176.9,84.7
		C176.9,84.7,176.9,84.7,176.9,84.7c-0.3-6-1.2-12-2.8-17.9c0,0,0,0,0,0c0,0,0,0,0,0c-6-22.8-20.5-41.9-40.9-53.7
		C112.8,1.2,89.1-2.1,66.3,3.9C48.6,8.6,33.1,18.4,21.5,32c0,0,0,0,0,0c0,0,0,0,0,0c-3.3,3.9-6.4,8.2-9,12.8
		C0.6,65.2-2.6,88.9,3.4,111.7c6,22.8,20.5,41.9,40.9,53.8c4,2.3,8.1,4.3,12.3,5.9c0.2,0.1,0.3,0.1,0.5,0.2c10.1,3.9,20.8,6,31.6,6
		c7.5,0,15.1-1,22.6-2.9c22.8-6,41.9-20.5,53.8-40.9C173.7,118.7,177.8,101.8,176.9,84.7z M159.3,133c-0.7-0.9-1.7-1.8-3-2.6
		c-8.9-5.4-26.5-2.8-52.4,7.8c-37.5,15.4-46-1.5-55.1-19.3c-2.9-5.7-5.9-11.6-9.8-16.2c-5.1-6-11-9.2-17.4-9.6
		c-6.4-0.3-11.9,2.3-15.4,4.5c-0.7-6.5-0.6-13,0.3-19.4c2.1,0.3,5.2,0.6,9,0.6c7.2,0,16.5-1.2,25-5.9c2-1.1,4.3-2.5,6.7-3.9
		c16.4-9.7,41.1-24.4,65.6-17.3c24.4,7.1,39.7-3.4,45.2-8.4c4.6,7,8.2,14.7,10.5,23c-4.1,2.7-16.6,9.9-29.5,5.7
		c-11.2-3.7-23.6-2-31.8,4.1c-5.3,4-8.1,9.5-7.8,15.5c0.2,4.5,2,8.3,5.5,11.4c10,9.1,29.2,8.8,34.8,8.5c13.3-0.7,22.1,7.1,25.2,10.4
		c-1.3,3-2.8,6-4.5,9C160,131.8,159.7,132.4,159.3,133z M139.4,106.5c-10.6,0.6-24.3-1-31-7.1c-2.4-2.2-3.6-4.7-3.8-7.8
		c-0.2-5.4,3-9,5.7-11.1c6.7-5.1,17.6-6.4,27-3.3c13.8,4.5,26.7-1.7,32.5-5.3c0.8,3.5,1.3,7,1.6,10.5c-19.4,1.1-23.8,7.1-24.7,10.7
		c-0.7,3.1,0.8,6.2,3.8,7.8c4.8,2.5,16.7,8.4,18.6,9.3c-0.6,2.3-1.3,4.6-2.1,6.8C162.4,112.5,152.9,105.8,139.4,106.5z M170.3,104.8
		c-3.6-1.7-13.2-6.5-17.3-8.7c-0.2-0.1-1.4-0.8-1.1-2c0.5-2.2,5.3-5.8,19.8-6.6C171.9,93.3,171.4,99.1,170.3,104.8z M67.6,9
		c7-1.9,14.2-2.8,21.3-2.8c14.5,0,28.8,3.8,41.7,11.3c1.4,0.8,2.8,1.7,4.2,2.6c-4.1,2.7-13.1,6.8-26.5,2
		c-18.6-6.6-26.1-1.3-39.6,8.5c-2.4,1.7-5,3.6-7.9,5.6c-14.3,9.8-28.5,1.1-33.6-2.8C37.9,21.7,51.8,13.2,67.6,9z M17,47.5
		c2-3.5,4.3-6.8,6.8-9.9c3.9,2.9,12.7,8.5,23.2,8.5c5.3,0,11-1.4,16.8-5.4c3-2,5.6-4,8.1-5.7c13.2-9.5,18.7-13.5,34.7-7.8
		c17.3,6.2,28.6-0.5,32.7-3.7c5.9,4.5,11.2,9.8,15.7,15.7c-4.2,3.9-18.1,14.3-40.7,7.7c-26.7-7.8-52.6,7.6-69.7,17.8
		c-2.4,1.4-4.6,2.7-6.6,3.9c-11.3,6.3-25.1,5.4-30.6,4.6C9,64.2,12.3,55.5,17,47.5z M13.6,124.5c2.7-0.1,6.9,0.2,11.4,3
		c7.7,4.7,13.3,15,16.3,29.9C29.2,149,19.7,137.7,13.6,124.5z M109.8,169.6c-15,3.9-30.4,3.6-44.9-0.7c15.6-6,27.8-5.5,35.7-3.9
		c5,1.1,8.8,2.7,11.4,4C111.2,169.2,110.5,169.4,109.8,169.6z M118.4,166.8c-2.9-2.2-24.9-17-60.9-0.6c-3.5-1.4-6.9-3.1-10.3-5
		c0,0,0-0.1,0-0.1c-3.1-19.1-9.7-31.9-19.6-38.1c-6.6-4.1-13-4-16.3-3.6c-1.1-2.9-2.1-6-3-9.1c-0.6-2.3-1.1-4.6-1.5-6.9
		c2.2-1.7,7.8-5.5,14.3-5.1c4.9,0.3,9.5,2.9,13.7,7.7c3.5,4.2,6.3,9.5,9.1,15.2c6.8,13.4,14.3,28.2,34.5,28.2
		c7.3,0,16.1-1.9,27.2-6.4c31.4-12.9,43.2-10.7,47.4-8.3c2.4,1.3,2.7,3,2.8,3.2C146.6,151,133.6,161,118.4,166.8z"/>
	<linearGradient id="SVGID_3_" gradientUnits="userSpaceOnUse" x1="62.6543" y1="117.4111" x2="99.0629" y2="117.4111">
		<stop  offset="0" style="stop-color:#FF543C"/>
		<stop  offset="0.1226" style="stop-color:#FF4B40"/>
		<stop  offset="0.3208" style="stop-color:#FF3349"/>
		<stop  offset="0.5685" style="stop-color:#FF0D59"/>
		<stop  offset="0.6412" style="stop-color:#FF005E"/>
	</linearGradient>
	<linearGradient id="SVGID_4_" gradientUnits="userSpaceOnUse" x1="62.1543" y1="117.4111" x2="99.5629" y2="117.4111">
		<stop  offset="0" style="stop-color:#FF543C"/>
		<stop  offset="0.1226" style="stop-color:#FF4B40"/>
		<stop  offset="0.3208" style="stop-color:#FF3349"/>
		<stop  offset="0.5685" style="stop-color:#FF0D59"/>
		<stop  offset="0.6412" style="stop-color:#FF005E"/>
	</linearGradient>
	<path style="fill:url(#SVGID_3_);stroke:url(#SVGID_4_);stroke-miterlimit:10;" d="M96.7,109c-2.1-4.2-6-7.3-10.6-8.5
		c-4.6-1.2-9.5-0.3-13.3,2.5l-3.2,2.3c-6,4.2-8.5,12-5.9,18.9c2.4,6.5,8.5,10.7,15.2,10.7c1.4,0,2.8-0.2,4.2-0.5l3.9-1
		c4.8-1.3,8.7-4.5,10.7-9c2-4.5,1.9-9.6-0.3-14L96.7,109z M92.8,122.1c-1.4,3-4,5.3-7.2,6.1l-3.9,1c-5.5,1.5-11.2-1.5-13.2-6.9v0
		c-1.7-4.7-0.1-10,4-12.8l3.2-2.3c1.9-1.3,4.1-2,6.3-2c0.9,0,1.8,0.1,2.7,0.3c3.1,0.8,5.7,2.9,7.2,5.8l0.6,1.3
		C94.1,115.6,94.2,119,92.8,122.1z"/>
	<linearGradient id="SVGID_5_" gradientUnits="userSpaceOnUse" x1="60.261" y1="79.152" x2="88.8903" y2="79.152">
		<stop  offset="0" style="stop-color:#FF543C"/>
		<stop  offset="0.1226" style="stop-color:#FF4B40"/>
		<stop  offset="0.3208" style="stop-color:#FF3349"/>
		<stop  offset="0.5685" style="stop-color:#FF0D59"/>
		<stop  offset="0.6412" style="stop-color:#FF005E"/>
	</linearGradient>
	<linearGradient id="SVGID_6_" gradientUnits="userSpaceOnUse" x1="59.761" y1="79.152" x2="89.3903" y2="79.152">
		<stop  offset="0" style="stop-color:#FF543C"/>
		<stop  offset="0.1226" style="stop-color:#FF4B40"/>
		<stop  offset="0.3208" style="stop-color:#FF3349"/>
		<stop  offset="0.5685" style="stop-color:#FF0D59"/>
		<stop  offset="0.6412" style="stop-color:#FF005E"/>
	</linearGradient>
	<path style="fill:url(#SVGID_5_);stroke:url(#SVGID_6_);stroke-miterlimit:10;" d="M69.1,92c1.4,0.5,2.9,0.8,4.4,0.8
		c2.2,0,4.4-0.6,6.3-1.7l2.6-1.5c5.1-2.9,7.6-8.8,6.1-14.4v0c-1.7-6.4-7.9-10.5-14.4-9.5l-3,0.5c-3.8,0.6-7.2,2.9-9.1,6.3
		c-1.9,3.4-2.3,7.4-0.9,11l0.4,1C62.8,88,65.6,90.7,69.1,92z M66.5,75.1c1.1-2,3.1-3.3,5.4-3.7l3-0.5c0.4-0.1,0.8-0.1,1.2-0.1
		c3.4,0,6.4,2.3,7.3,5.7c0.9,3.3-0.6,6.8-3.6,8.5l-2.6,1.5c-1.9,1.1-4.2,1.3-6.3,0.5c-2.1-0.8-3.7-2.4-4.5-4.4l-0.4-1
		C65.2,79.5,65.4,77.1,66.5,75.1z"/>
	<linearGradient id="SVGID_7_" gradientUnits="userSpaceOnUse" x1="42.9655" y1="95.3625" x2="60.8859" y2="95.3625">
		<stop  offset="0" style="stop-color:#FF543C"/>
		<stop  offset="0.1226" style="stop-color:#FF4B40"/>
		<stop  offset="0.3208" style="stop-color:#FF3349"/>
		<stop  offset="0.5685" style="stop-color:#FF0D59"/>
		<stop  offset="0.6412" style="stop-color:#FF005E"/>
	</linearGradient>
	<linearGradient id="SVGID_8_" gradientUnits="userSpaceOnUse" x1="42.4655" y1="95.3625" x2="61.3859" y2="95.3625">
		<stop  offset="0" style="stop-color:#FF543C"/>
		<stop  offset="0.1226" style="stop-color:#FF4B40"/>
		<stop  offset="0.3208" style="stop-color:#FF3349"/>
		<stop  offset="0.5685" style="stop-color:#FF0D59"/>
		<stop  offset="0.6412" style="stop-color:#FF005E"/>
	</linearGradient>
	<path style="fill:url(#SVGID_7_);stroke:url(#SVGID_8_);stroke-miterlimit:10;" d="M54.5,86.8c-2.6-0.8-5.3-0.4-7.5,1.1
		c-2.7,1.8-4.2,4.8-4,8.1c0.2,3.3,2.2,6,5.1,7.4c1.2,0.6,2.5,0.9,3.8,0.9c2.3,0,4.5-0.9,6.2-2.5c2.7-2.6,3.5-6.5,2-9.9
		C59.1,89.4,57,87.5,54.5,86.8z M54.5,98c-0.4,0.4-2,1.7-4.2,0.7c-1.2-0.6-2-1.7-2.1-3.1c-0.1-1.4,0.5-2.6,1.6-3.4
		c0.6-0.4,1.3-0.6,2.1-0.6c0.4,0,0.7,0.1,1.1,0.2c1.1,0.3,1.9,1.1,2.4,2.1C56.3,96.1,54.9,97.6,54.5,98z"/>
	<linearGradient id="SVGID_9_" gradientUnits="userSpaceOnUse" x1="117.687" y1="90.151" x2="134.111" y2="90.151">
		<stop  offset="0" style="stop-color:#FF543C"/>
		<stop  offset="0.1226" style="stop-color:#FF4B40"/>
		<stop  offset="0.3208" style="stop-color:#FF3349"/>
		<stop  offset="0.5685" style="stop-color:#FF0D59"/>
		<stop  offset="0.6412" style="stop-color:#FF005E"/>
	</linearGradient>
	<linearGradient id="SVGID_10_" gradientUnits="userSpaceOnUse" x1="117.187" y1="90.151" x2="134.611" y2="90.151">
		<stop  offset="0" style="stop-color:#FF543C"/>
		<stop  offset="0.1226" style="stop-color:#FF4B40"/>
		<stop  offset="0.3208" style="stop-color:#FF3349"/>
		<stop  offset="0.5685" style="stop-color:#FF0D59"/>
		<stop  offset="0.6412" style="stop-color:#FF005E"/>
	</linearGradient>
	<path style="fill:url(#SVGID_9_);stroke:url(#SVGID_10_);stroke-miterlimit:10;" d="M128.2,82.3c-2.4-0.7-4.9-0.3-6.9,1
		c-2.5,1.7-3.9,4.4-3.6,7.4c0.2,3,2,5.5,4.7,6.8c1.1,0.5,2.3,0.8,3.5,0.8c2.1,0,4.1-0.8,5.7-2.3c2.5-2.4,3.2-6,1.9-9.1
		C132.5,84.7,130.6,83,128.2,82.3z M128,92.3c-0.3,0.3-1.6,1.4-3.3,0.5c-1.4-0.7-1.7-1.9-1.7-2.5s0-1.8,1.3-2.7
		c0.5-0.3,1.1-0.5,1.6-0.5c0.3,0,0.6,0,0.8,0.1c0.8,0.3,1.5,0.9,1.9,1.7C129.4,90.7,128.3,91.9,128,92.3z"/>
</g>
</svg>
