<?xml version="1.0" encoding="utf-8"?>
<!-- Generator: Adobe Illustrator 22.1.0, SVG Export Plug-In . SVG Version: 6.00 Build 0)  -->
<svg version="1.1" id="Calque_1" xmlns="http://www.w3.org/2000/svg" xmlns:xlink="http://www.w3.org/1999/xlink" x="0px" y="0px"
	 viewBox="0 0 490 500" style="enable-background:new 0 0 490 500;" xml:space="preserve">
<style type="text/css">
	.st0{fill:none;}
	.st1{fill:#FFFFFF;}
</style>
<g>
	<path class="st0" d="M272.7,378.9c-1-6.8-1.5-13.6-2.3-20.6c-13.8,1.1-26.2,4.7-37.9,10.6c5,23.7,15.7,44.5,26.4,65.3
		c9.9-1.7,28.1-9.7,33.6-15c-5.7-10.2-11.5-20-16.8-30.1C274.1,386,273.2,382.4,272.7,378.9z"/>
	<path class="st0" d="M76.5,204.2c-8.8,0.2-16,6.9-17,15.8c-0.9,8.3,5.1,16.7,13.4,18.5c2.7,0.6,5.6,1.2,8.3,1
		c1.6-0.1,4.1-1.2,4.5-2.5c2.2-6.1,3.9-12.4,5.8-18.6C90.6,206.1,88.4,203.9,76.5,204.2z"/>
	<path class="st0" d="M274.4,466.4c3,6.7,8.2,10,15.1,11.3c10.4,2,28.1-8.5,22.3-23.4c-3.4-8.8-8.9-16.8-13.1-24.5
		c-11.8,5.2-22.9,10-34.6,15.1C267.5,452,271.2,459.1,274.4,466.4z"/>
	<path class="st0" d="M389.9,150c0.8,0.6,2.7,0.5,3.6-0.1c3.1-2.1,6.2-4.4,8.9-6.9c5.2-4.9,6.7-12.5,4.1-19
		c-2.7-6.6-9-10.9-16.8-10.9c-6.5-0.2-11,4.8-16.3,8.4c-2.5,1.7-2.7,3.5-1.8,5.9C375.1,137,381.5,144.4,389.9,150z"/>
	<path class="st0" d="M275,86.2c-1.7,7.2-3.1,13.4-4.7,20.2c3.7,0.5,7.3,1,11.5,1.5C279.5,100.4,277.4,93.6,275,86.2z"/>
	<path class="st0" d="M176.6,137.1c-8-8.7-15.5-17-22.5-24.7c3.4,10.9,7.1,22.7,10.9,35.1C169.5,143.5,173.4,140,176.6,137.1z"/>
	<path class="st0" d="M211.3,133.4c27.6,0.2,50.5-23.1,50.8-51.8c0.3-29.4-22.4-52.8-51.4-53.1c-28.3-0.3-51.4,22.9-51.8,51.9
		C158.5,109.2,182.2,133.1,211.3,133.4z M182.3,59.1c11.2-8,23.8-11.6,35.5-12.3c21.9-0.3,34.7,12.8,34.6,33.7
		c-0.1,20.4-15.5,38.4-35.2,41c-21.7,2.9-40.9-9.4-46.6-29.9C166.9,78.5,170.8,67.3,182.3,59.1z"/>
	<path class="st1" d="M217.2,121.6c19.7-2.6,35.1-20.7,35.2-41c0.1-20.9-12.7-34-34.6-33.7c-11.6,0.7-24.3,4.3-35.5,12.3
		c-11.4,8.1-15.4,19.4-11.7,32.5C176.3,112.1,195.4,124.4,217.2,121.6z"/>
	<path class="st0" d="M176.6,137.1c-8-8.7-15.5-17-22.5-24.7c3.4,10.9,7.1,22.7,10.9,35.1C169.5,143.5,173.4,140,176.6,137.1z"/>
	<path class="st0" d="M76.5,204.2c-8.8,0.2-16,6.9-17,15.8c-0.9,8.3,5.1,16.7,13.4,18.5c2.7,0.6,5.6,1.2,8.3,1
		c1.6-0.1,4.1-1.2,4.5-2.5c2.2-6.1,3.9-12.4,5.8-18.6C90.6,206.1,88.4,203.9,76.5,204.2z"/>
	<path class="st0" d="M274.4,466.4c3,6.7,8.2,10,15.1,11.3c10.4,2,28.1-8.5,22.3-23.4c-3.4-8.8-8.9-16.8-13.1-24.5
		c-11.8,5.2-22.9,10-34.6,15.1C267.5,452,271.2,459.1,274.4,466.4z"/>
	<path class="st0" d="M389.9,150c0.8,0.6,2.7,0.5,3.6-0.1c3.1-2.1,6.2-4.4,8.9-6.9c5.2-4.9,6.7-12.5,4.1-19
		c-2.7-6.6-9-10.9-16.8-10.9c-6.5-0.2-11,4.8-16.3,8.4c-2.5,1.7-2.7,3.5-1.8,5.9C375.1,137,381.5,144.4,389.9,150z"/>
	<path class="st0" d="M275,86.2c-1.7,7.2-3.1,13.4-4.7,20.2c3.7,0.5,7.3,1,11.5,1.5C279.5,100.4,277.4,93.6,275,86.2z"/>
	<path class="st0" d="M211.3,133.4c27.6,0.2,50.5-23.1,50.8-51.8c0.3-29.4-22.4-52.8-51.4-53.1c-28.3-0.3-51.4,22.9-51.8,51.9
		C158.5,109.2,182.2,133.1,211.3,133.4z"/>
	<g>
		<path class="st0" d="M176.6,137.1c-8-8.7-15.5-17-22.5-24.7c3.4,10.9,7.1,22.7,10.9,35.1C169.5,143.5,173.4,140,176.6,137.1z"/>
		<path class="st0" d="M275,86.2c-1.7,7.2-3.1,13.4-4.7,20.2c3.7,0.5,7.3,1,11.5,1.5C279.5,100.4,277.4,93.6,275,86.2z"/>
		<path class="st0" d="M76.5,204.2c-8.8,0.2-16,6.9-17,15.8c-0.9,8.3,5.1,16.7,13.4,18.5c2.7,0.6,5.6,1.2,8.3,1
			c1.6-0.1,4.1-1.2,4.5-2.5c2.2-6.1,3.9-12.4,5.8-18.6C90.6,206.1,88.4,203.9,76.5,204.2z"/>
		<path class="st0" d="M389.9,150c0.8,0.6,2.7,0.5,3.6-0.1c3.1-2.1,6.2-4.4,8.9-6.9c5.2-4.9,6.7-12.5,4.1-19
			c-2.7-6.6-9-10.9-16.8-10.9c-6.5-0.2-11,4.8-16.3,8.4c-2.5,1.7-2.7,3.5-1.8,5.9C375.1,137,381.5,144.4,389.9,150z"/>
		<path class="st0" d="M211.3,133.4c27.6,0.2,50.5-23.1,50.8-51.8c0.3-29.4-22.4-52.8-51.4-53.1c-28.3-0.3-51.4,22.9-51.8,51.9
			C158.5,109.2,182.2,133.1,211.3,133.4z"/>
		<path class="st0" d="M274.4,466.4c3,6.7,8.2,10,15.1,11.3c10.4,2,28.1-8.5,22.3-23.4c-3.4-8.8-8.9-16.8-13.1-24.5
			c-11.8,5.2-22.9,10-34.6,15.1C267.5,452,271.2,459.1,274.4,466.4z"/>
		<path class="st0" d="M317.1,179.2c8.3,0.8,16.5,2.4,24.8,2.9c3.7,0.3,8.3,0,11.2-1.9c10.1-6.8,19.7-14.4,29.9-22
			c-9.8-7.4-17.1-16.1-21.3-27.6c-4.1,3.1-8.1,5.7-11.5,8.9c-5.5,5.3-10.9,6.3-17.7,2.3c-4.1-2.4-8.8-3.9-13.5-5.9l-0.3-0.3
			l-17.9-7.5l-0.4,0.1c-10.2-5.7-20.5-8.6-31.5-9.3c-1.4-0.1-3.3,0.9-4.2,2c-19.4,24.1-44.1,31.9-73.9,24c-1.2-0.3-3.1-0.4-3.8,0.3
			c-8.9,8.3-17.7,16.7-27.1,25.7l0.2-0.1l-11.7,15.3l-0.7,0.2c-5.3,6.1-10.9,11.9-15.8,18.2c-3.6,4.7-7.6,6.2-13.4,5
			c-5.9-1.3-11.9-1.7-18.3-2.5c1.6,12.1,0.5,23.2-4.4,34c1.3,0.4,2.2,0.8,3.1,0.9c10.3,1.4,20.5,2.6,30.8,4.2
			c6,0.9,11.1-0.6,15.8-4.4c9.4-7.4,18.8-14.7,28.3-22c7.1-5.5,10.3-4.4,13,4.3c13.5,42.9,26.9,85.9,40.4,128.8
			c0.4,1.4,0.9,2.8,1.3,3.8l-0.1,0.4l5.4,16.2c5.3,21.8,15.4,41.3,25.4,60.8c9.9-1.7,28.1-9.7,33.6-15c-5.7-10.2-11.5-20-16.8-30.1
			c-1.6-3.1-2.6-6.7-3.1-10.2c-1-6.8-1.5-13.6-2.3-20.6c0,0,0,0-0.1,0l0.2-0.1l-2.2-20.5c-0.6-6.6-1.3-13.4-2.1-20.2
			c-0.6-5.5,0.5-7.4,5.8-9c6.6-2.1,13.2-3.9,19.8-6.1c4.4-1.5,7.4-0.4,10,3.5c5.5,8.4,11.4,16.5,16.8,24.1c0,0,0.1,0,0.1-0.1
			l0.4,0.5l6.4,9.1c0,0-0.1,0-0.1,0.1c1.7,2.5,3,4.7,4.5,6.6c8.4,10.1,13.9,21.4,15.8,34.5c0.6,4.2,1.9,8.2,2.9,12.3
			c0.8,3.1,1.5,6.2,2.3,9.3c11.6-1.7,22-5.1,31.7-10.3c2.2-1.2,3.1-2.3,2.3-5.1c-5.7-19.5-11.2-39.1-20.6-57.4
			c-0.6-1.2-1.2-2-1.9-2.6l-5.6-13.5l-0.2-0.3c-2.2-4.8-4.7-10.3-7.2-15.9c-6.1-13.6-13.2-26.8-18.1-40.8
			c-7.9-22.5-14.3-45.5-21.2-68.2C308.1,181.7,310.5,178.6,317.1,179.2z"/>
		<path class="st0" d="M353.6,414.4c1.7,7,3.3,14,5,21c2.6,10.8,9.3,15.4,20.3,14.3c11.1-1.1,20.3-12.3,17.9-22.4
			c-2.1-8.8-5.1-17.4-7.5-25.6c-12,4.1-23.8,8.1-35.7,12.1C353.6,413.7,353.6,414.1,353.6,414.4z"/>
		<path class="st1" d="M362.9,187.9c14.8-11.2,29.6-22.4,44.2-33.7c13.6-10.5,16.3-28.3,6.3-41.3c-10-13-27.8-15.1-41.5-4.8
			c-9.4,7.1-18.8,14.2-28,21.5c-2.7,2.1-4.8,2.5-8,1.1c-11.7-5.3-23.5-10.4-35.4-15.2c-3.5-1.4-5.4-3.4-6.5-7.1
			c-3.5-12.2-7.4-24.3-11.2-36.4c-2.6-8.2-7-15-14.2-19.9c-1.4-0.9-2.5-2.4-3.4-3.8c-15.8-25.5-44.6-36.8-72.8-28.6
			c-27.1,7.9-45.4,33.5-45.2,62.6c0,2.2-0.6,4.6-1.6,6.7c-4.3,9-5.4,18.2-2.3,27.9c4.1,12.7,7.8,25.5,11.8,38.2
			c0.9,2.9,0.5,4.9-1.6,7.1c-9.5,10.7-19,21.4-28.1,32.4c-2.7,3.3-5.4,3.9-9.4,3.3c-12.1-1.9-24.2-3.6-36.4-5.1
			c-15-1.8-29.8,10-31.5,24.8c-1.9,16.9,9,30.7,26.2,33.1c16,2.2,32,4.2,48,6.7c10.6,1.6,20.6,1.7,29.5-5.6c6-5,12.3-9.7,18.5-14.6
			c2-1.6,4.2-3.1,6.5-4.8c0.6,1.7,1,2.7,1.4,3.7c12.9,41.5,25.8,83,38.9,124.4c5.2,16.4,10,33.1,16.9,48.8
			c9.2,21.3,20.1,41.8,30.3,62.7c7.8,16,27.2,22.3,42.8,14.1c17.2-9.1,22-25.5,12.4-42.5c-10.7-19.2-21.6-38.2-32.2-57.5
			c-1.8-3.3-3-7.3-3.4-11c-1.7-14.6-3-29.4-4.6-44c-1.4-12.1-1.5-12,10.1-15.7c3.1-1,4.7-0.3,6.5,2.3c10.5,15.3,21.2,30.4,31.6,45.7
			c2,2.9,3.5,6.3,4.3,9.7c5.4,22.1,10.5,44.3,15.8,66.3c3.3,13.7,12.8,21.3,26.9,22.1c22.6,1.3,39.9-20.9,32.5-41
			c-3-8.1-4.9-16.5-7.5-24.8c-5.4-17.4-9.8-35.1-16.4-52c-8.1-20.5-17.5-40.6-27.5-60.4c-14.6-28.9-22.2-60.2-32.5-91.8
			c5.9,0.8,10.9,1.3,15.8,2.1C347.8,195,355.8,193.3,362.9,187.9z M275,86.2c2.3,7.4,4.4,14.2,6.8,21.8c-4.3-0.6-7.9-1.1-11.5-1.5
			C271.9,99.6,273.4,93.4,275,86.2z M210.7,28.5c29,0.3,51.7,23.7,51.4,53.1c-0.3,28.6-23.2,52-50.8,51.8
			c-29.1-0.3-52.8-24.2-52.4-53C159.3,51.4,182.4,28.2,210.7,28.5z M154.1,112.5c7,7.7,14.6,15.9,22.5,24.7
			c-3.2,2.9-7.1,6.4-11.6,10.4C161.1,135.2,157.4,123.3,154.1,112.5z M275.8,389.1 M270.4,358.3"/>
	</g>
</g>
</svg>
