<?xml version="1.0" encoding="utf-8"?>
<!-- Generator: Adobe Illustrator 22.1.0, SVG Export Plug-In . SVG Version: 6.00 Build 0)  -->
<svg version="1.1" id="Calque_1" xmlns="http://www.w3.org/2000/svg" xmlns:xlink="http://www.w3.org/1999/xlink" x="0px" y="0px"
	 viewBox="0 0 1920 1080" style="enable-background:new 0 0 1920 1080;" xml:space="preserve">
<style type="text/css">
	.st0{opacity:0.18;fill:url(#SVGID_1_);}
	.st1{fill:url(#SVGID_2_);}
	.st2{opacity:0.1;fill:#662D91;}
</style>
<g>
	<g>
		<linearGradient id="SVGID_1_" gradientUnits="userSpaceOnUse" x1="712.9121" y1="319.1435" x2="1383.0156" y2="917.959">
			<stop  offset="0" style="stop-color:#FF543C"/>
			<stop  offset="8.093239e-02" style="stop-color:#FF4B40"/>
			<stop  offset="0.2118" style="stop-color:#FF3349"/>
			<stop  offset="0.3753" style="stop-color:#FF0D59"/>
			<stop  offset="0.4233" style="stop-color:#FF005E"/>
			<stop  offset="0.528" style="stop-color:#C7045F;stop-opacity:0.833"/>
			<stop  offset="0.7152" style="stop-color:#680A60;stop-opacity:0.5345"/>
			<stop  offset="0.7995" style="stop-color:#420C60;stop-opacity:0.4"/>
			<stop  offset="1" style="stop-color:#2D0D53;stop-opacity:0"/>
		</linearGradient>
		<circle class="st0" cx="960" cy="540" r="276"/>
		<linearGradient id="SVGID_2_" gradientUnits="userSpaceOnUse" x1="762.3386" y1="363.3119" x2="1298.4227" y2="842.3655">
			<stop  offset="0" style="stop-color:#FF543C"/>
			<stop  offset="8.093239e-02" style="stop-color:#FF4B40"/>
			<stop  offset="0.2118" style="stop-color:#FF3349"/>
			<stop  offset="0.3753" style="stop-color:#FF0D59"/>
			<stop  offset="0.4233" style="stop-color:#FF005E"/>
			<stop  offset="0.528" style="stop-color:#C7045F;stop-opacity:0.833"/>
			<stop  offset="0.7152" style="stop-color:#680A60;stop-opacity:0.5345"/>
			<stop  offset="0.7995" style="stop-color:#420C60;stop-opacity:0.4"/>
			<stop  offset="1" style="stop-color:#2D0D53;stop-opacity:0"/>
		</linearGradient>
		<circle class="st1" cx="960" cy="540" r="220.8"/>
	</g>
	<path class="st2" d="M873.2,629.9c123.1,0,222.9-99.8,222.9-223c0-16.1-1.7-31.7-5-46.8c54.5,40.6,89.8,105.6,89.8,178.8
		c0,123.2-99.8,223-222.9,223c-107.2,0-196.5-75.5-218-176.1C777.1,613.5,823.2,629.9,873.2,629.9z"/>
	<g>
		<defs>
			<path id="SVGID_3_" d="M1180.9,539.3c0,122.4-99.2,221.6-221.6,221.6c-122.4,0-221.6-99.2-221.6-221.6
				c0-122.4,99.2-221.6,221.6-221.6C1081.7,317.7,1180.9,416.9,1180.9,539.3z"/>
		</defs>
		<clipPath id="SVGID_4_">
			<use xlink:href="#SVGID_3_"  style="overflow:visible;"/>
		</clipPath>
	</g>
</g>
</svg>
