<svg xmlns="http://www.w3.org/2000/svg" xmlns:xlink="http://www.w3.org/1999/xlink" viewBox="0 0 1705.88 698.16"><defs><style>.cls-1{opacity:0.29;}.cls-2{fill:url(#Degradado_sin_nombre_85);}</style><linearGradient id="Degradado_sin_nombre_85" y1="349.08" x2="1705.88" y2="349.08" gradientUnits="userSpaceOnUse"><stop offset="0" stop-color="#ff543c"/><stop offset="0.08" stop-color="#ff4b40"/><stop offset="0.21" stop-color="#ff3349"/><stop offset="0.38" stop-color="#ff0d59"/><stop offset="0.42" stop-color="#ff005e"/><stop offset="0.57" stop-color="#b0055f" stop-opacity="0.75"/><stop offset="0.73" stop-color="#610a60" stop-opacity="0.5"/><stop offset="0.8" stop-color="#420c60" stop-opacity="0.4"/><stop offset="1" stop-color="#2d0d53" stop-opacity="0"/></linearGradient></defs><title>Fichier 1</title><g id="Calque_2" data-name="Calque 2"><g id="Calque_1-2" data-name="Calque 1"><g class="cls-1"><path class="cls-2" d="M1131.17,588.43c159-2.67,333.12-11,451-117.75,45-40.73,78.2-93.48,100.25-150,20.8-53.33,31.92-113,15.76-167.86C1672.72,66.38,1582.94,10.42,1493.28,1.57s-178.71,21.09-260.36,59.18S1073.26,145.62,987.74,174C778.22,243.5,550.79,195.7,331.3,172.12c-69.38-7.45-144.19-11.28-204,24.58-30.61,18.33-54.78,45.8-75,75.18C14.86,326.07-11.25,393.58,4.84,457.4,24.93,537.08,103.17,587.14,179,618.87c260,108.82,557.62,95,830,22.52,82.5-22,164.31-49.2,249.32-57"/></g></g></g></svg>