<?xml version="1.0" encoding="utf-8"?>
<!-- Generator: Adobe Illustrator 22.1.0, SVG Export Plug-In . SVG Version: 6.00 Build 0)  -->
<svg version="1.1" id="Calque_1" xmlns="http://www.w3.org/2000/svg" xmlns:xlink="http://www.w3.org/1999/xlink" x="0px" y="0px"
	 viewBox="0 0 86 123" style="enable-background:new 0 0 86 123;" xml:space="preserve">
<style type="text/css">
	.st0{fill:#FFFFFF;}
</style>
<g>
	<path class="st0" d="M74.4,91.9c-0.2-1.6-1-3-2.2-4L55.5,73.5c-1.7-1.5-2.8-3.6-3-5.9L50,34.3c-0.2-2.8-1-5.4-2.2-7.9l-4.2-8.1
		c-1.2-2.3-3.5-3.8-6.1-3.8s-4.9,1.4-6.1,3.8l-4.2,8.1c-1.3,2.5-2,5.1-2.2,7.9l-2.5,33.3c-0.2,2.3-1.2,4.4-3,5.9L2.9,87.9
		c-1.2,1-2,2.5-2.2,4l-0.6,4.3c-0.5,3.5,1.8,6.8,5.3,7.4l19.1,0.8l-0.3,1.7c-0.4,2.2,0.6,4.5,2.5,5.7c2.3,1.4,5.6,1.4,9.7,1.4l1.2,0
		l1.2,0c0.4,0,0.7,0,1.1,0c3.6,0,6.4-0.1,8.5-1.4c1.9-1.2,2.9-3.5,2.5-5.7l-0.3-1.7l18.9-0.8l0.2,0c3.5-0.6,5.8-3.9,5.3-7.4
		L74.4,91.9z M46.6,108.8c-1.5,0.9-4.5,0.9-7.9,0.9l-1.2,0l-1.2,0c-3.4,0-6.4,0-7.9-0.9c-0.7-0.4-1.1-1.3-1-2.2l3.9-21.4
		c0.5-2.9,3.1-5.1,6.1-5.1s5.6,2.1,6.1,5.1l3.9,21.4C47.7,107.5,47.3,108.4,46.6,108.8z M69.2,100.2L49.9,101l-3-16.4
		c-0.8-4.6-4.8-7.9-9.4-7.9S29,80,28.1,84.6l-3,16.4l-19.2-0.8c-1.6-0.3-2.7-1.9-2.5-3.6L4,92.4c0.1-0.8,0.5-1.4,1.1-1.9l16.7-14.4
		c2.4-2.1,3.9-5,4.1-8.2l2.5-33.3c0.2-2.3,0.8-4.6,1.9-6.6l4.2-8.1c0.6-1.2,1.8-1.9,3.1-1.9s2.5,0.7,3.1,1.9l4.2,8.1
		c1.1,2.1,1.7,4.3,1.9,6.6l2.5,33.3c0.2,3.2,1.7,6.1,4.1,8.2L70,90.4c0.6,0.5,1,1.2,1.1,1.9l0.6,4.3C71.9,98.3,70.8,99.9,69.2,100.2
		z"/>
</g>
</svg>
